<?xml version="1.0" encoding="utf-8"?><svg viewBox="0 0 97 98" xmlns="http://www.w3.org/2000/svg" xmlns:xlink="http://www.w3.org/1999/xlink"><style>:root>svg{display:none}:root>svg:target{display:block}</style><svg fill="none" viewBox="0 0 51 61" id="arrow-down" xmlns="http://www.w3.org/2000/svg"><path d="m27.882 60.025 22.14-22.03a3.305 3.305 0 0 0 .978-2.36c0-.895-.347-1.732-.979-2.361l-2.01-2a3.339 3.339 0 0 0-2.373-.975c-.898 0-1.77.347-2.4.975L30.294 44.125V3.295A3.266 3.266 0 0 0 26.995 0h-2.842c-1.85 0-3.445 1.455-3.445 3.295v40.976L7.692 31.274a3.29 3.29 0 0 0-2.35-.974c-.898 0-1.73.346-2.362.974l-2.004 2A3.302 3.302 0 0 0 0 35.637c0 .893.349 1.731.98 2.36l22.14 22.03A3.34 3.34 0 0 0 25.5 61a3.34 3.34 0 0 0 2.382-.975Z" fill="#fff"/></svg><svg fill="none" viewBox="0 0 55 55" id="benefit" xmlns="http://www.w3.org/2000/svg"><path d="M25.838 24.021a11.011 11.011 0 0 0 9.396 5.198c6.16 0 11.172-5.012 11.172-11.172 0-5.88-4.568-10.703-10.341-11.13a11.16 11.16 0 0 0-9.424-5.198A11.186 11.186 0 0 0 15.469 12.89c0 5.888 4.584 10.716 10.369 11.13Zm17.13-5.974c0 4.264-3.47 7.734-7.734 7.734a7.633 7.633 0 0 1-5.378-2.195c4.598-1.385 7.956-5.653 7.956-10.695 0-.743-.075-1.468-.214-2.171 3.105 1.005 5.37 3.891 5.37 7.327ZM26.642 5.157c4.264 0 7.734 3.47 7.734 7.734a7.736 7.736 0 0 1-7.624 7.724l-.059.005-.051.005c-4.265 0-7.735-3.47-7.735-7.734 0-4.265 3.47-7.735 7.735-7.735Zm23.667 26.386a4.744 4.744 0 0 0-4.873.127l-9.417 5.886a1.705 1.705 0 0 1-.91.262h-4.466a5.183 5.183 0 0 0 .106-3.111c-.606-2.218-2.705-3.764-5.11-3.764h-8.452a5.087 5.087 0 0 0-2.527.689 5.146 5.146 0 0 0-4.348-2.412H6.873a5.163 5.163 0 0 0-5.156 5.157v13.715a5.163 5.163 0 0 0 5.156 5.157h3.438a5.145 5.145 0 0 0 4.331-2.38 5.101 5.101 0 0 0 2.544.697h17.638a5.159 5.159 0 0 0 3.35-1.236l13.385-11.435.258-.275c.596-.845.93-1.847.96-2.88a4.74 4.74 0 0 0-2.47-4.198ZM12.03 36.096v11.995a1.72 1.72 0 0 1-1.719 1.72H6.876a1.72 1.72 0 0 1-1.719-1.72V34.377c0-.947.77-1.719 1.719-1.719h3.438a1.72 1.72 0 0 1 1.718 1.719v1.72Zm37.105.35L35.942 47.715a1.718 1.718 0 0 1-1.117.412H17.187a1.72 1.72 0 0 1-1.718-1.718V36.097c0-.947.77-1.719 1.719-1.719h8.452c.844 0 1.599.518 1.793 1.231a1.705 1.705 0 0 1-.285 1.52 1.708 1.708 0 0 1-1.367.685h-5.156a1.719 1.719 0 0 0 0 3.438h14.484c.968 0 1.913-.272 2.733-.784l9.417-5.885a1.332 1.332 0 0 1 1.383-.036 1.333 1.333 0 0 1 .702 1.191c0 .156-.107.504-.207.708h-.001Z" fill="#B59DFF"/></svg><svg fill="none" viewBox="0 0 55 55" id="cooperation" xmlns="http://www.w3.org/2000/svg"><g clip-path="url(#ca)" fill="#B59DFF"><path d="M52.659 27.307c.806-2.2 1.265-4.85 1.43-6.787a1.76 1.76 0 0 0-1.605-1.903 1.767 1.767 0 0 0-1.902 1.605 27.004 27.004 0 0 1-.736 4.273l-10.02-10.02c-1.499-1.5-3.758-2.264-6.207-2.118-2.227.138-4.362 1.028-5.709 2.376l-4.594 4.592c-1.187 1.186-2.614 1.667-3.91 1.319-.947-.254-1.67-.916-1.887-1.727-.247-.92.18-1.988 1.201-3.009l5.142-5.143a18.694 18.694 0 0 1 4.39-3.262c.052-.025.103-.051.153-.081 3.945-2.063 8.457-2.584 12.513-1.296l11.078 11.077a1.754 1.754 0 0 0 1.244.515 1.76 1.76 0 0 0 1.244-3.004L43.168 3.399a1.735 1.735 0 0 0-.106-.107L40.535.766a1.76 1.76 0 0 0-3.002 1.178c-3.39-.21-6.85.487-10.029 1.997-3.206-1.525-6.674-2.202-10.037-1.994A1.76 1.76 0 0 0 14.465.765L.516 14.715a1.76 1.76 0 0 0 2.49 2.489L14.083 6.126c3.054-.968 6.434-.919 9.649.101a22.303 22.303 0 0 0-2.36 2.049l-5.14 5.143c-2.628 2.627-2.452 5.142-2.113 6.408.542 2.022 2.218 3.638 4.375 4.216 2.549.682 5.211-.132 7.31-2.229l4.596-4.593c.746-.747 2.065-1.265 3.437-1.35 1.437-.095 2.715.307 3.498 1.092L50.453 30.08c.825.826 1.142 1.709.915 2.554-.212.794-.876 1.447-1.69 1.665-.875.236-1.764-.066-2.57-.872l-.698-.7-.03-.026-4.277-4.277a1.759 1.759 0 1 0-2.489 2.489l4.307 4.306.02.018.68.679.005.006c.934.937 1.31 1.974 1.056 2.922a2.407 2.407 0 0 1-1.677 1.672c-.952.255-1.992-.121-2.93-1.06l-.697-.696-.02-.017-4.286-4.287a1.759 1.759 0 1 0-2.488 2.49l4.306 4.306.014.013c1.627 1.637 1.603 3.532.736 4.562-.707.84-1.745.874-2.845.099a1.76 1.76 0 0 0-2.729 1.837c.407 1.745-.537 2.839-1.554 3.281a1.76 1.76 0 0 0 .702 3.375c.233 0 .47-.048.699-.148 1.918-.833 3.196-2.42 3.617-4.312 1.963.291 3.707-.567 4.801-1.866.89-1.056 1.427-2.48 1.424-4.016a5.779 5.779 0 0 0 2.161-.163 5.902 5.902 0 0 0 4.165-4.16 5.787 5.787 0 0 0 .188-1.86 5.907 5.907 0 0 0 5.5-4.348c.555-2.069-.11-4.238-1.826-5.954l-.284-.285Z"/><path d="M32.073 45.048a5.905 5.905 0 0 0-4.154-4.18 5.57 5.57 0 0 0-1.008-.175 5.713 5.713 0 0 0-.177-1.97c-.545-2.04-2.136-3.642-4.153-4.182a5.554 5.554 0 0 0-1.482-.19 5.765 5.765 0 0 0-.446-2.188c-.904-2.182-3.056-3.647-5.355-3.647h-.054a5.943 5.943 0 0 0-1.724-4.126c-2.004-2.006-5.488-2.577-8.364.119a27.05 27.05 0 0 1-.736-4.287c-.082-.968-.925-1.673-1.903-1.604a1.76 1.76 0 0 0-1.605 1.904c.165 1.94.624 4.594 1.43 6.79l-.283.281C.343 29.308-.322 31.48.232 33.548c.54 2.015 2.142 3.607 4.18 4.152.478.129.97.195 1.464.197a5.571 5.571 0 0 0 .431 2.189c.901 2.174 3.071 3.636 5.406 3.646-.004.5.06 1 .19 1.483.54 2.016 2.141 3.608 4.18 4.153a5.715 5.715 0 0 0 2.132.161 5.814 5.814 0 0 0 1.676 3.494 5.941 5.941 0 0 0 4.17 1.727c1.494 0 3.075-.579 4.462-1.965l1.767-1.768c1.695-1.695 2.345-3.87 1.783-5.97ZM5.324 34.302c-.815-.217-1.478-.871-1.691-1.665-.227-.845.09-1.729.914-2.554l2.898-2.894c1.436-1.437 2.795-1.1 3.587-.31.846.848 1.102 2.298-.226 3.638l-.014.015-2.897 2.896-.013.014c-.801.797-1.687 1.095-2.558.86Zm4.234 4.437c-.372-.9-.09-1.89.795-2.791l.03-.03.028-.029 2.84-2.84.03-.027.033-.035c.636-.622 1.32-.951 1.983-.951.892 0 1.738.592 2.103 1.474.227.55.43 1.652-.775 2.857l-2.897 2.898c-.62.62-1.309.947-1.993.947-.923 0-1.818-.606-2.177-1.473Zm7.437 7.23c-.814-.218-1.478-.872-1.69-1.664-.226-.841.087-1.72.902-2.54l.01-.01 2.89-2.89.009-.009c.826-.825 1.71-1.143 2.554-.915.793.211 1.446.876 1.664 1.691.235.876-.066 1.764-.87 2.568l-.334.333a8.49 8.49 0 0 0-.165.16l-.041.047-1.692 1.69-.032.03-.067.07-.568.568c-.805.804-1.694 1.106-2.57.87Zm10.806 2.56-1.768 1.767c-1.346 1.346-2.804 1.089-3.654.24-.772-.772-1.109-2.082.204-3.477l1.963-1.962c.798-.76 1.644-1.047 2.462-.828.793.212 1.446.876 1.664 1.69.235.877-.067 1.765-.871 2.57Z"/></g><defs><clipPath id="ca"><path fill="#fff" d="M0 0h55v55H0z"/></clipPath></defs></svg><svg fill="none" viewBox="0 0 55 55" id="delivery" xmlns="http://www.w3.org/2000/svg"><path d="M41.539 32.7a6.94 6.94 0 0 0-6.933 6.932 6.94 6.94 0 0 0 6.933 6.933 6.94 6.94 0 0 0 6.933-6.933 6.94 6.94 0 0 0-6.933-6.933Zm0 10.399a3.47 3.47 0 0 1-3.467-3.467 3.47 3.47 0 0 1 3.467-3.466 3.47 3.47 0 0 1 3.466 3.466A3.47 3.47 0 0 1 41.54 43.1Zm-23.687-10.4a6.94 6.94 0 0 0-6.933 6.933 6.94 6.94 0 0 0 6.933 6.933 6.94 6.94 0 0 0 6.933-6.933 6.94 6.94 0 0 0-6.933-6.933Zm0 10.4a3.47 3.47 0 0 1-3.466-3.467 3.47 3.47 0 0 1 3.466-3.466 3.47 3.47 0 0 1 3.466 3.466 3.47 3.47 0 0 1-3.466 3.467Zm28.356-30.243a1.733 1.733 0 0 0-1.55-.955h-9.127v3.466h8.059l4.72 9.387 3.097-1.557-5.2-10.341Z" fill="#B59DFF"/><path d="M23.225 37.957h13.114v3.466H23.225v-3.466Zm-10.573 0H6.644a1.733 1.733 0 1 0 0 3.466h6.008a1.733 1.733 0 1 0 0-3.466ZM54.636 27.36l-3.41-4.39a1.728 1.728 0 0 0-1.368-.67H37.264V10.167c0-.957-.776-1.733-1.733-1.733H6.644a1.733 1.733 0 1 0 0 3.466h27.153v12.132c0 .958.776 1.734 1.733 1.734h13.48l2.524 3.251v8.939h-4.796a1.733 1.733 0 1 0 0 3.466h6.529c.957 0 1.733-.776 1.733-1.733V28.424c0-.384-.128-.759-.364-1.063Zm-42.1 1.814H4.565a1.733 1.733 0 1 0 0 3.467h7.973a1.733 1.733 0 1 0 0-3.467Zm3.987-6.817H1.733a1.733 1.733 0 1 0 0 3.466h14.79a1.733 1.733 0 1 0 0-3.466Z" fill="#B59DFF"/><path d="M19.354 15.54H4.564a1.733 1.733 0 1 0 0 3.467h14.79a1.733 1.733 0 1 0 0-3.466Z" fill="#B59DFF"/></svg><svg fill="none" viewBox="0 0 32 31" id="download" xmlns="http://www.w3.org/2000/svg"><path d="M1.792 27.125A1.292 1.292 0 0 1 .5 25.833v-6.458a1.291 1.291 0 1 1 2.583 0v6.458a1.292 1.292 0 0 1-1.291 1.292Z" fill="#FEFEFE"/><path d="M5.667 31A5.173 5.173 0 0 1 .5 25.833a1.292 1.292 0 0 1 2.583 0 2.586 2.586 0 0 0 2.584 2.584 1.292 1.292 0 0 1 0 2.583Zm24.541-3.875a1.292 1.292 0 0 1-1.291-1.292v-6.458a1.292 1.292 0 1 1 2.583 0v6.458a1.292 1.292 0 0 1-1.292 1.292Z" fill="#FEFEFE"/><path d="M26.333 31H5.667a1.292 1.292 0 0 1 0-2.583h20.666a1.292 1.292 0 1 1 0 2.583Z" fill="#FEFEFE"/><path d="M26.334 31a1.292 1.292 0 0 1 0-2.583 2.586 2.586 0 0 0 2.583-2.584 1.292 1.292 0 0 1 2.583 0A5.173 5.173 0 0 1 26.334 31ZM16 23.25a1.292 1.292 0 0 1-1.291-1.292V1.292a1.292 1.292 0 0 1 2.583 0v20.666A1.292 1.292 0 0 1 16 23.25Z" fill="#FEFEFE"/><path d="M16 23.25a1.287 1.287 0 0 1-.913-.378L7.78 15.565a1.292 1.292 0 1 1 1.826-1.826l7.307 7.306A1.292 1.292 0 0 1 16 23.25Z" fill="#FEFEFE"/><path d="M16 23.25a1.291 1.291 0 0 1-.913-2.205l7.306-7.306a1.292 1.292 0 1 1 1.827 1.826l-7.307 7.307a1.285 1.285 0 0 1-.913.378Z" fill="#FEFEFE"/></svg><svg fill="none" viewBox="0 0 97 98" id="drawing" xmlns="http://www.w3.org/2000/svg"><path d="M85.386 68.818a1.415 1.415 0 0 0-1.543.307l-15.48 15.479a1.416 1.416 0 0 0 1.003 2.418h15.478a1.416 1.416 0 0 0 1.417-1.417V70.126a1.417 1.417 0 0 0-.875-1.308ZM72.785 84.189l10.643-10.643v10.643H72.785Z" fill="#1D1D1B" fill-opacity=".25"/><path d="M95.626 46.115a1.417 1.417 0 0 0-1.544.307l-4.242 4.242V21.82a1.416 1.416 0 0 0-1.416-1.416H77.54l3.95-3.95.002-.003 3.806-3.806a4.291 4.291 0 0 0 1.265-3.054c0-1.154-.45-2.238-1.265-3.054l-4.401-4.402A4.29 4.29 0 0 0 77.844.872c-1.154 0-2.238.449-3.054 1.264l-3.808 3.809-4.602 4.602-9.858 9.857H12.556V6.392a1.416 1.416 0 0 0-1.416-1.416C4.997 4.976 0 9.973 0 16.116v60.16c0 .104.012.206.034.303a10.668 10.668 0 0 0 3.207 6.867 10.667 10.667 0 0 0 7.488 3.047h43.282l-8.152 8.151a1.417 1.417 0 0 0 1.002 2.418h48.223a1.417 1.417 0 0 0 1.416-1.416V47.423a1.416 1.416 0 0 0-.874-1.308ZM76.793 4.14a1.487 1.487 0 0 1 2.102 0l4.402 4.402c.579.579.579 1.522 0 2.101L80.49 13.45l-6.503-6.504 2.806-2.806Zm-4.81 4.81 6.504 6.503-2.6 2.599-6.502-6.503 2.598-2.6Zm21.685 54.389h-2.614a1.416 1.416 0 1 0 0 2.833h2.614v4.268h-2.614a1.416 1.416 0 1 0 0 2.833h2.614v4.268h-2.614a1.416 1.416 0 1 0 0 2.833h2.614v4.268h-2.614a1.416 1.416 0 1 0 0 2.833h2.614v6.755H50.28l14.307-14.307a1.417 1.417 0 0 0-2.003-2.003l-5.74 5.74H10.73a7.852 7.852 0 0 1-7.89-7.641 8.33 8.33 0 0 1 .062-.8v-.005c.017-.125.036-.25.057-.374l.008-.042a8.192 8.192 0 0 1 .336-1.274l.052-.147c.035-.093.071-.185.11-.276l.032-.079c.048-.113.098-.224.152-.335l.006-.014a8.338 8.338 0 0 1 5.796-4.532l.021-.005c.117-.024.236-.044.355-.063a8.268 8.268 0 0 1 .385-.052l.091-.011a8.19 8.19 0 0 1 .317-.024l.1-.008c.14-.007.28-.01.42-.01a1.416 1.416 0 0 0 1.416-1.417v-10.27a1.416 1.416 0 1 0-2.832 0v8.943a11.063 11.063 0 0 0-6.892 3.635V16.116c0-4.098 2.983-7.512 6.891-8.187v42.687a1.416 1.416 0 0 0 2.833 0V23.238H53.69l-7.83 7.83a1.416 1.416 0 0 0 2.003 2.003L58.11 22.823l.001-.001 9.27-9.27 6.503 6.503-.763.763-.001.002-28.56 28.56-6.503-6.504 5.63-5.63a1.416 1.416 0 0 0-2.004-2.002l-6.63 6.63a1.425 1.425 0 0 0-.1.112l-.03.04c-.02.026-.04.053-.058.081l-.03.05a1.185 1.185 0 0 0-.104.219c-.004.01-.01.019-.013.029l-2.76 7.817-1.88 5.33c-.025.07-.044.142-.057.215h-4.71a1.416 1.416 0 1 0 0 2.833h39.224a1.417 1.417 0 1 0 0-2.833H36.395l8.637-3.049c.008-.002.014-.006.022-.009a1.5 1.5 0 0 0 .099-.04l.038-.019c.034-.017.068-.035.1-.055l.032-.02c.034-.021.067-.045.1-.07.008-.007.017-.012.025-.018.039-.032.078-.066.114-.103l29.147-29.146h12.299v30.259l-20.26 20.26a1.416 1.416 0 1 0 2.003 2.004v-.001l24.918-24.918V63.34ZM41.969 50.795l-4.057 1.432-2.703-2.703 1.432-4.057 5.328 5.328Z" fill="#1D1D1B" fill-opacity=".25"/></svg><svg fill="none" viewBox="0 0 20 20" id="info" xmlns="http://www.w3.org/2000/svg"><path d="M10 20a10 10 0 1 1 10-10 10.01 10.01 0 0 1-10 10Zm0-18.605A8.605 8.605 0 1 0 18.605 10 8.614 8.614 0 0 0 10 1.395Z" fill="#000"/><path d="M10.93 15.349H9.07a.698.698 0 0 1 0-1.396h1.86a.698.698 0 0 1 0 1.396Z" fill="#000"/><path d="M10 15.349a.707.707 0 0 1-.698-.698V8.8a.698.698 0 0 1 .233-1.358H10a.707.707 0 0 1 .697.697v6.512a.707.707 0 0 1-.697.698ZM10 6.279a.93.93 0 1 0 0-1.86.93.93 0 0 0 0 1.86Z" fill="#000"/></svg><svg fill="none" viewBox="0 0 20 21" id="mail" xmlns="http://www.w3.org/2000/svg"><path d="M9.02 10.397c.522.348 1.438.348 1.96 0l8.902-5.934a2.158 2.158 0 0 0-2.037-1.453H2.155C1.213 3.01.41 3.62.118 4.463l8.901 5.934Z" fill="#1D1D1D"/><path d="M11.63 11.372c-.457.305-1.043.457-1.63.457s-1.173-.152-1.63-.457L0 5.792v10.042c0 1.189.967 2.155 2.155 2.155h15.69A2.157 2.157 0 0 0 20 15.834V5.792l-8.37 5.58Z" fill="#1D1D1D"/></svg><svg fill="none" viewBox="0 0 20 21" id="marker" xmlns="http://www.w3.org/2000/svg"><g clip-path="url(#ia)"><path d="M10 .5C6.006.5 2.757 3.75 2.757 7.743c0 4.957 6.482 12.233 6.758 12.54.259.29.712.289.97 0 .276-.307 6.758-7.583 6.758-12.54C17.243 3.75 13.994.5 10 .5Zm0 10.887a3.648 3.648 0 0 1-3.644-3.644A3.648 3.648 0 0 1 10 4.1a3.648 3.648 0 0 1 3.644 3.644A3.648 3.648 0 0 1 10 11.387Z" fill="#1D1D1D"/></g><defs><clipPath id="ia"><path fill="#fff" transform="translate(0 .5)" d="M0 0h20v20H0z"/></clipPath></defs></svg><svg fill="none" viewBox="0 0 20 21" id="phone" xmlns="http://www.w3.org/2000/svg"><g clip-path="url(#ja)"><path fill-rule="evenodd" clip-rule="evenodd" d="M19.634 18.092c-.133.132-.293.302-.462.48-.424.45-.954 1.01-1.285 1.236-1.746 1.193-4.082.622-5.734-.066-2.179-.908-4.551-2.582-6.682-4.712C3.34 12.899 1.665 10.525.757 8.348.07 6.694-.503 4.359.691 2.612c.226-.332.787-.86 1.236-1.285.18-.17.348-.33.48-.462a1.258 1.258 0 0 1 1.776 0l3.212 3.211a1.258 1.258 0 0 1 0 1.775l-.875.873a1.912 1.912 0 0 0-.338 2.26 12.832 12.832 0 0 0 5.333 5.333 1.91 1.91 0 0 0 2.26-.339l.872-.873a1.258 1.258 0 0 1 1.775 0l3.212 3.212a1.258 1.258 0 0 1 0 1.774Z" fill="#1D1D1D"/></g><defs><clipPath id="ja"><path fill="#fff" transform="translate(0 .5)" d="M0 0h20v20H0z"/></clipPath></defs></svg><svg fill="none" viewBox="0 0 34 34" id="tg-icon" xmlns="http://www.w3.org/2000/svg"><path d="M24.489 0H9.51C4.258 0 0 4.259 0 9.513v14.979c0 5.253 4.258 9.512 9.511 9.512H24.49c5.253 0 9.511-4.258 9.511-9.512V9.512C34 4.26 29.742 0 24.489 0Z" fill="#02B0F4"/><path d="M25.537 11.641c-.044-.178-.108-.231-.215-.285-.235-.114-.657-.016-.657-.016s-14.99 3.843-15.871 4.34c-.19.109-.257.175-.295.258-.18.396.247.621.247.621l3.621 1.57s.136.035.19.006c.9-.457 9.062-4.595 9.521-4.715.073-.016.12.016.105.06-.238.609-7.489 5.923-7.489 5.923s-.028.029-.047.067l-.01-.006-.697 3.675s-.254 1.122.989.092a31.982 31.982 0 0 1 2.133-1.611c1.202 1.008 2.492 2.121 3.041 2.689.276.285.523.352.73.364.567.032.786-.573.786-.573s3.646-10.385 3.867-11.803c.023-.139.042-.225.051-.323.013-.133.016-.27 0-.333Z" fill="#fff"/></svg><svg fill="none" viewBox="0 0 56 57" id="time" xmlns="http://www.w3.org/2000/svg"><path d="M27.563.938C12.363.938 0 13.3 0 28.5c0 15.199 12.364 27.563 27.563 27.563 15.198 0 27.562-12.364 27.562-27.563C55.125 13.301 42.761.937 27.562.937Zm0 51.187c-13.028 0-23.625-10.598-23.625-23.625S14.534 4.875 27.563 4.875c13.027 0 23.625 10.598 23.625 23.625S40.59 52.125 27.561 52.125ZM29.53 12.75V28.5a1.968 1.968 0 0 1-.876 1.638l-11.812 7.875a1.97 1.97 0 0 1-2.186-3.276l10.937-7.29V12.75a1.969 1.969 0 1 1 3.937 0Z" fill="#B59DFF"/></svg><svg fill="none" viewBox="0 0 34 34" id="wa-icon" xmlns="http://www.w3.org/2000/svg"><path d="M24.482.005H9.509C4.257.005 0 4.263 0 9.515V24.49C0 29.742 4.257 34 9.509 34h14.973c5.251 0 9.508-4.258 9.508-9.51V9.515c0-5.252-4.257-9.51-9.508-9.51Z" fill="#01E311"/><path d="M25.454 11.626c-1.553-2.748-4.488-4.533-7.686-4.634-3.242-.102-6.577 1.534-8.282 4.66-1.553 2.85-1.43 6.349.314 9.135a1351.6 1351.6 0 0 1-.697 3.807c1.356-.222 2.713-.443 4.072-.662.489.266 3.744 1.965 7.544.56.475-.173 4.149-1.606 5.467-5.642 1.202-3.674-.456-6.73-.732-7.22v-.004Zm-.599 6.68c-1.065 3.413-4.14 4.662-4.545 4.817-3.553 1.37-6.621-.504-6.95-.713-.828.178-1.655.355-2.486.53l.39-2.524c-1.69-2.349-1.911-5.452-.567-7.991 1.41-2.67 4.209-4.07 6.928-4.02a7.763 7.763 0 0 1 6.53 3.82c.237.412 1.67 2.967.697 6.077l.003.003Z" fill="#fff"/><path d="M15.226 11.813c.102 0 .19.064.222.159.168.507.834 2.057.783 2.225-.064.2-.827.786-.859 1.072-.029.285.539 1.08 1.135 1.705.811.85 2.095 1.404 2.2 1.452.104.047.9-1.132 1.064-1.205.165-.073 2.282 1.069 2.282 1.265 0 .197-.164.865-.554 1.398-.273.37-.872.532-1.316.593h-.031c-.336-.054-2.663-.317-4.66-2.289a8.252 8.252 0 0 1-2.266-4.156c0-.01-.003-.019-.003-.031-.01-.245 0-.967.513-1.598.2-.244.546-.476.672-.555a.2.2 0 0 1 .105-.028h.716l-.003-.007Z" fill="#fff"/></svg></svg>