<svg width="298" height="370" viewBox="0 0 298 370" fill="none" xmlns="http://www.w3.org/2000/svg">
<path d="M149.4 8V41M149.4 8L8 149V182M149.4 8L290.8 149V182M149.4 41L8 182M149.4 41L290.8 182M149.4 41V60.5M8 182V201.7M290.8 182V201.7M8 221.4L149.4 80L290.8 221.4L149.4 362.8L8 221.4Z" stroke="black" stroke-width="10"/>
<path d="M148.5 283C183.018 283 211 255.018 211 220.5C211 185.982 183.018 158 148.5 158C113.982 158 86 185.982 86 220.5C86 255.018 113.982 283 148.5 283Z" fill="#FF4646"/>
</svg>
