<svg width="51" height="61" viewBox="0 0 51 61" fill="none" xmlns="http://www.w3.org/2000/svg">
<path d="M27.8818 60.025L50.0211 37.9957C50.6531 37.3669 51 36.5288 51 35.6351C51 34.7405 50.6526 33.9028 50.0211 33.274L48.0106 31.2739C47.3796 30.6456 46.5369 30.2994 45.6382 30.2994C44.7401 30.2994 43.8689 30.6456 43.238 31.2739L30.2941 44.1254L30.2941 3.29546C30.2941 1.45456 28.8457 -9.68393e-07 26.9952 -1.04928e-06L24.1528 -1.17353e-06C22.3023 -1.25442e-06 20.7079 1.45456 20.7079 3.29546L20.7079 44.2713L7.69177 31.2744C7.0598 30.646 6.23994 30.2999 5.34133 30.2999C4.44371 30.2999 3.61189 30.646 2.98042 31.2744L0.976363 33.2745C0.344397 33.9033 2.29612e-06 34.7409 2.25702e-06 35.6356C2.21795e-06 36.5293 0.348879 37.3674 0.980845 37.9962L23.1197 60.0255C23.7536 60.6558 24.5999 61.0025 25.4995 61C26.4021 61.002 27.2489 60.6558 27.8818 60.025Z" fill="white"/>
</svg>
