<svg width="55" height="55" viewBox="0 0 55 55" fill="none" xmlns="http://www.w3.org/2000/svg">
<path d="M25.838 24.0212C26.8304 25.6175 28.215 26.9332 29.8597 27.8429C31.5045 28.7527 33.3548 29.2264 35.2344 29.2188C41.3944 29.2188 46.4063 24.2069 46.4063 18.0469C46.4063 12.167 41.8378 7.34422 36.0645 6.91625C35.0593 5.3257 33.6681 4.01515 32.0205 3.10645C30.3729 2.19774 28.5222 1.72038 26.6406 1.71875C23.6788 1.72239 20.8393 2.90059 18.7449 4.99494C16.6506 7.08928 15.4724 9.92878 15.4688 12.8906C15.4688 18.7791 20.0527 23.607 25.838 24.0212ZM42.9688 18.0469C42.9688 22.3111 39.4986 25.7812 35.2344 25.7812C33.2225 25.787 31.2898 24.9982 29.8564 23.5864C34.4541 22.2011 37.8125 17.9334 37.8125 12.8906C37.8125 12.1481 37.7369 11.4228 37.5977 10.7198C40.7034 11.7253 42.9688 14.6111 42.9688 18.0469ZM26.6406 5.15625C30.9049 5.15625 34.375 8.62641 34.375 12.8906C34.3721 14.9211 33.571 16.869 32.1446 18.314C30.7182 19.759 28.7809 20.5854 26.7506 20.6147L26.6922 20.6198L26.6406 20.625C22.3764 20.625 18.9063 17.1548 18.9063 12.8906C18.9063 8.62641 22.3764 5.15625 26.6406 5.15625ZM50.3078 31.5425C49.5601 31.1209 48.712 30.91 47.8539 30.9324C46.9958 30.9548 46.1599 31.2096 45.4352 31.6697L36.0181 37.5564C35.7458 37.7275 35.4306 37.8181 35.1089 37.8177H30.6419C30.9908 36.8345 31.0355 35.7552 30.7484 34.7067C30.1417 32.4895 28.0431 30.9427 25.6386 30.9427H17.1858C16.2979 30.948 15.4268 31.1856 14.6592 31.6319C14.1972 30.8953 13.556 30.2878 12.7956 29.8661C12.0352 29.4444 11.1803 29.2223 10.3108 29.2205H6.87329C4.03048 29.2205 1.71704 31.5339 1.71704 34.3767V48.0923C1.71704 50.9352 4.03048 53.2486 6.87329 53.2486H10.3108C11.1745 53.2473 12.0241 53.0286 12.781 52.6126C13.538 52.1966 14.178 51.5966 14.642 50.8681C15.3966 51.2995 16.2559 51.5659 17.1858 51.5659H34.8236C36.0508 51.5659 37.2402 51.1277 38.1734 50.3302L51.5591 38.8953L51.8169 38.6203C52.4132 37.7754 52.7474 36.7734 52.7777 35.7397C52.7777 33.9694 51.853 32.4002 50.3061 31.5425H50.3078ZM12.0313 36.0972V48.0923C12.0313 49.0394 11.2613 49.8111 10.3125 49.8111H6.87501C5.92626 49.8111 5.15626 49.0394 5.15626 48.0923V34.3767C5.15626 33.4297 5.92626 32.658 6.87501 32.658H10.3125C11.2613 32.658 12.0313 33.4297 12.0313 34.3767V36.0972ZM49.1356 36.4461L35.9425 47.7159C35.6312 47.9822 35.235 48.1285 34.8253 48.1284H17.1875C16.2388 48.1284 15.4688 47.3567 15.4688 46.4097V36.0972C15.4688 35.1502 16.2388 34.3784 17.1875 34.3784H25.6403C26.4842 34.3784 27.2388 34.8958 27.433 35.6091C27.5085 35.8669 27.522 36.1389 27.4724 36.4029C27.4228 36.667 27.3116 36.9156 27.1477 37.1284C26.9889 37.3411 26.7827 37.5138 26.5455 37.6329C26.3083 37.7519 26.0467 37.814 25.7813 37.8142H20.625C20.1692 37.8142 19.732 37.9953 19.4097 38.3176C19.0873 38.64 18.9063 39.0771 18.9063 39.533C18.9063 39.9888 19.0873 40.426 19.4097 40.7483C19.732 41.0706 20.1692 41.2517 20.625 41.2517H35.1089C36.0766 41.2517 37.0219 40.9802 37.8417 40.468L47.2588 34.583C47.4639 34.4508 47.7015 34.3775 47.9455 34.3711C48.1895 34.3647 48.4306 34.4255 48.6424 34.5469C48.8569 34.6624 49.0357 34.8345 49.1593 35.0445C49.2829 35.2545 49.3467 35.4943 49.3436 35.738C49.3436 35.8944 49.237 36.2416 49.1374 36.4461H49.1356Z" fill="#B59DFF"/>
</svg>
