<svg width="55" height="55" viewBox="0 0 55 55" fill="none" xmlns="http://www.w3.org/2000/svg">
<g clip-path="url(#clip0_257_70)">
<path d="M52.659 27.3073C53.4652 25.107 53.9239 22.4577 54.0889 20.5195C54.1708 19.5509 53.4531 18.6996 52.4844 18.6167C51.5111 18.548 50.6635 19.2535 50.5816 20.2221C50.4741 21.4789 50.222 23.0487 49.8465 24.4948L39.8261 14.4744C38.3274 12.9758 36.068 12.2111 33.6189 12.357C31.392 12.4953 29.2574 13.3847 27.9104 14.7327L23.3163 19.325C22.1294 20.5109 20.7023 20.9924 19.4057 20.6435C18.459 20.3899 17.7364 19.7283 17.5191 18.917C17.2721 17.9971 17.6993 16.9293 18.7203 15.9083L23.8616 10.765C25.1868 9.44043 26.6726 8.34775 28.2518 7.50256C28.304 7.47807 28.3554 7.45164 28.4052 7.42199C32.3503 5.35854 36.8619 4.83798 40.9176 6.12564L51.9963 17.2029C52.1596 17.3664 52.3535 17.496 52.567 17.5843C52.7805 17.6727 53.0093 17.718 53.2404 17.7177C53.6903 17.7177 54.1413 17.547 54.4845 17.2029C55.1719 16.5155 55.1719 15.4011 54.4845 14.7137L43.1682 3.39897C43.1343 3.36193 43.0987 3.32638 43.0617 3.29241L40.5345 0.765648C39.8481 0.0782606 38.7337 0.0782606 38.0453 0.765648C37.7186 1.09242 37.549 1.51588 37.533 1.94395C34.1434 1.7348 30.6822 2.43078 27.5041 3.94144C24.2983 2.41606 20.8301 1.73942 17.4672 1.94739C17.4519 1.51835 17.2822 1.0936 16.9547 0.76554C16.2673 0.0781532 15.1529 0.0781532 14.4656 0.76554L0.51554 14.7137C-0.171847 15.4002 -0.171847 16.5145 0.51554 17.2029C0.678989 17.3664 0.873098 17.496 1.08674 17.5844C1.30039 17.6727 1.52936 17.718 1.76055 17.7177C2.21054 17.7177 2.66149 17.547 3.00459 17.2029L14.0831 6.12596C17.1373 5.15766 20.5169 5.20708 23.7316 6.22747C22.8983 6.8543 22.11 7.53878 21.3725 8.27588L16.2312 13.4191C13.6038 16.0455 13.7802 18.5613 14.1187 19.8274C14.6612 21.8494 16.337 23.4653 18.4945 24.043C21.0427 24.7246 23.7054 23.9114 25.8046 21.8142L30.3996 17.221C31.1461 16.4736 32.4646 15.956 33.8373 15.8701C35.274 15.7757 36.5524 16.1781 37.3351 16.9626L50.4529 30.0804C51.2784 30.9059 51.595 31.7888 51.3681 32.6344C51.1565 33.4276 50.492 34.0806 49.6779 34.2988C48.8027 34.5353 47.9142 34.2331 47.1087 33.4266L46.4099 32.7278C46.4003 32.7183 46.3898 32.7102 46.38 32.7008L42.1027 28.4236C41.4163 27.7362 40.3019 27.7362 39.6145 28.4236C38.9262 29.1109 38.9262 30.2244 39.6145 30.9127L43.9207 35.2189C43.9271 35.2252 43.934 35.2305 43.9405 35.2367L44.6205 35.9159L44.6262 35.9215C45.5604 36.8587 45.9361 37.8959 45.6815 38.8435C45.466 39.6443 44.8092 40.3002 44.0055 40.5156C43.0531 40.7711 42.013 40.3946 41.0749 39.4565L40.3781 38.7605C40.3717 38.7541 40.3649 38.749 40.3584 38.7427L36.0719 34.4562C35.3855 33.7688 34.2711 33.7688 33.5837 34.4562C32.8954 35.1436 32.8954 36.257 33.5837 36.9454L37.8899 41.2516C37.8945 41.2562 37.8997 41.2599 37.9043 41.2646C39.531 42.9021 39.5071 44.7971 38.6401 45.8266C37.9328 46.6674 36.8955 46.7008 35.7954 45.9258C35.5038 45.72 35.1566 45.6077 34.7997 45.6037C34.4429 45.5998 34.0933 45.7045 33.7973 45.9039C33.5014 46.1032 33.273 46.3876 33.1425 46.7196C33.0119 47.0516 32.9852 47.4154 33.066 47.7629C33.4731 49.5085 32.5294 50.6019 31.5121 51.0443C30.6197 51.4323 30.2118 52.4676 30.5988 53.36C30.8857 54.0225 31.533 54.4191 32.2138 54.4191C32.4473 54.4191 32.6847 54.3714 32.9125 54.2705C34.8307 53.4382 36.1091 51.8519 36.5295 49.9586C38.4934 50.2503 40.237 49.3923 41.3314 48.0929C42.2209 47.0366 42.7577 45.6133 42.7548 44.0775C43.479 44.1599 44.2123 44.1046 44.916 43.9144C46.9428 43.3719 48.5386 41.778 49.0811 39.7541C49.2441 39.1484 49.3075 38.5202 49.2689 37.8941C49.7147 37.8796 50.1574 37.8141 50.5884 37.6987C52.6266 37.1535 54.2282 35.5623 54.7687 33.546C55.3236 31.4773 54.6582 29.3075 52.9431 27.5916L52.659 27.3073Z" fill="#B59DFF"/>
<path d="M32.0728 45.0478C31.5276 43.0087 29.9355 41.407 27.9192 40.8674C27.5894 40.7786 27.252 40.7203 26.9115 40.6933C26.9671 40.0402 26.9098 39.3775 26.7341 38.7225C26.1889 36.6833 24.5977 35.0808 22.5814 34.5412C22.0981 34.411 21.5995 34.3468 21.0989 34.3502C21.0957 33.6165 20.949 32.8793 20.6528 32.1635C19.7491 29.9814 17.5974 28.5161 15.298 28.5161C15.2804 28.5161 15.2622 28.5164 15.2443 28.5166C15.2322 26.9245 14.5655 25.435 13.5201 24.39C11.5158 22.3838 8.03191 21.8132 5.15604 24.5087C4.77974 23.0608 4.5273 21.4837 4.41956 20.2221C4.3376 19.2544 3.49488 18.549 2.5167 18.6176C1.54809 18.7006 0.829332 19.5519 0.912261 20.5215C1.07747 22.4616 1.53563 25.116 2.34128 27.3114L2.05909 27.5932C0.343144 29.3083 -0.322329 31.4791 0.2325 33.5478C0.772076 35.5631 2.37372 37.1552 4.41193 37.7005C4.88955 37.8288 5.38173 37.895 5.87629 37.8974C5.87028 38.6342 6.01143 39.3723 6.30716 40.0856C7.20799 42.2599 9.37833 43.7224 11.713 43.7317C11.7092 44.2326 11.7732 44.7318 11.9032 45.2155C12.4427 47.2309 14.0444 48.8229 16.0826 49.3682C16.5684 49.4996 17.0694 49.5663 17.5726 49.5665C17.7875 49.5665 18.0017 49.5534 18.2148 49.5291C18.3542 50.871 18.9711 52.1034 19.8911 53.0233C20.9454 54.0786 22.4526 54.7498 24.0619 54.7498C25.5549 54.7498 27.1364 54.1711 28.5235 52.7849L30.2901 51.0174C31.9851 49.3216 32.6353 47.1461 32.0728 45.0478ZM5.32426 34.3019C4.50915 34.0846 3.84561 33.4306 3.63302 32.6374C3.40615 31.7918 3.72261 30.908 4.54728 30.0834L7.44539 27.1891C8.88108 25.7524 10.2396 26.089 11.0319 26.8793C11.8781 27.7265 12.1343 29.1774 10.8062 30.5173L10.7917 30.5315L7.89549 33.4277L7.88206 33.4415C7.08059 34.2387 6.19491 34.5371 5.32426 34.3019ZM9.55804 38.7387C9.18572 37.8386 9.46867 36.8483 10.3531 35.948C10.3632 35.938 10.3736 35.9288 10.3837 35.9188C10.3932 35.9092 10.4013 35.8988 10.4105 35.889L13.2511 33.0485C13.2608 33.0391 13.2713 33.0312 13.2808 33.0215C13.2923 33.01 13.3026 32.9983 13.3139 32.9868C13.9495 32.3647 14.6343 32.0358 15.2971 32.0358C16.1895 32.0358 17.0351 32.6278 17.4002 33.5096C17.6271 34.0597 17.8302 35.1618 16.6252 36.3668L13.728 39.2649C13.1074 39.8846 12.4191 40.2125 11.7346 40.2125C10.8116 40.2125 9.91737 39.6062 9.55804 38.7387ZM16.9949 45.9688C16.1808 45.7515 15.5172 45.0974 15.3046 44.3052C15.0788 43.4637 15.3917 42.5854 16.2074 41.7642L16.2179 41.7541L19.1062 38.8649C19.1094 38.8618 19.1128 38.8592 19.116 38.856C19.9417 38.0313 20.8253 37.7129 21.67 37.9408C22.4632 38.1524 23.1162 38.8169 23.3345 39.632C23.569 40.5081 23.2678 41.3956 22.4631 42.2003L22.1297 42.5335C22.0745 42.5858 22.0197 42.6389 21.9654 42.6932C21.9505 42.7081 21.9378 42.7243 21.9235 42.7397L20.2318 44.4308C20.2214 44.4408 20.2101 44.4494 20.1998 44.4597C20.1767 44.4828 20.1558 44.5062 20.1332 44.5294L19.565 45.0976C18.7605 45.9021 17.871 46.2042 16.9949 45.9688ZM27.8009 48.5285L26.0334 50.296C24.6873 51.6421 23.2288 51.3847 22.3793 50.5353C21.6072 49.7642 21.2705 48.4543 22.5828 47.0592L24.5456 45.097C25.3439 44.3369 26.1903 44.0505 27.0076 44.2691C27.8008 44.4808 28.4538 45.1453 28.6721 45.9594C28.9068 46.8363 28.6055 47.7238 27.8009 48.5285Z" fill="#B59DFF"/>
</g>
<defs>
<clipPath id="clip0_257_70">
<rect width="55" height="55" fill="white"/>
</clipPath>
</defs>
</svg>
