<svg width="55" height="55" viewBox="0 0 55 55" fill="none" xmlns="http://www.w3.org/2000/svg">
<path d="M41.5389 32.6994C37.7161 32.6994 34.6061 35.8094 34.6061 39.6322C34.6061 43.455 37.7161 46.565 41.5389 46.565C45.3624 46.565 48.4717 43.455 48.4717 39.6322C48.4717 35.8094 45.3618 32.6994 41.5389 32.6994ZM41.5389 43.0986C39.6273 43.0986 38.0725 41.5439 38.0725 39.6322C38.0725 37.7205 39.6273 36.1658 41.5389 36.1658C43.4506 36.1658 45.0053 37.7205 45.0053 39.6322C45.0053 41.544 43.4506 43.0986 41.5389 43.0986ZM17.852 32.6994C14.0292 32.6994 10.9192 35.8094 10.9192 39.6322C10.9192 43.455 14.0292 46.565 17.852 46.565C21.6748 46.565 24.7848 43.455 24.7848 39.6322C24.7848 35.8094 21.6748 32.6994 17.852 32.6994ZM17.852 43.0986C15.9403 43.0986 14.3856 41.5439 14.3856 39.6322C14.3856 37.7205 15.9403 36.1658 17.852 36.1658C19.7631 36.1658 21.3184 37.7205 21.3184 39.6322C21.3184 41.544 19.7637 43.0986 17.852 43.0986ZM46.2076 12.8556C46.0632 12.5686 45.8419 12.3274 45.5684 12.1589C45.2949 11.9904 44.9799 11.9011 44.6587 11.9011H35.5305V15.3675H43.5898L48.3093 24.7545L51.4071 23.1969L46.2076 12.8556Z" fill="#B59DFF"/>
<path d="M23.2248 37.9569H36.3393V41.4233H23.2248V37.9569ZM12.6523 37.9569H6.64394C5.68659 37.9569 4.91079 38.7328 4.91079 39.6901C4.91079 40.6474 5.6867 41.4232 6.64394 41.4232H12.6524C13.6097 41.4232 14.3855 40.6473 14.3855 39.6901C14.3855 38.7327 13.6096 37.9569 12.6523 37.9569ZM54.6361 27.3613L51.2269 22.9705C51.0651 22.7617 50.8576 22.5928 50.6203 22.4767C50.3831 22.3605 50.1224 22.3002 49.8583 22.3003H37.2637V10.168C37.2637 9.21061 36.4878 8.43481 35.5305 8.43481H6.64394C5.68659 8.43481 4.91079 9.21072 4.91079 10.168C4.91079 11.1252 5.6867 11.9011 6.64394 11.9011H33.7973V24.0334C33.7973 24.9908 34.5732 25.7666 35.5304 25.7666H49.0095L51.5336 29.018V37.9567H46.7384C45.7811 37.9567 45.0053 38.7326 45.0053 39.6899C45.0053 40.6472 45.7812 41.423 46.7384 41.423H53.2667C54.2241 41.423 54.9999 40.6471 55 39.6899V28.4243C55 28.0395 54.8717 27.6652 54.6361 27.3613ZM12.5368 29.1754H4.56403C3.60669 29.1754 2.83089 29.9513 2.83089 30.9085C2.83089 31.8659 3.6068 32.6417 4.56403 32.6417H12.5367C13.494 32.6417 14.2698 31.8658 14.2698 30.9085C14.2699 29.9513 13.494 29.1754 12.5368 29.1754ZM16.5231 22.3581H1.73314C0.775908 22.3581 0 23.134 0 24.0913C0 25.0487 0.775908 25.8245 1.73314 25.8245H16.5231C17.4804 25.8245 18.2562 25.0486 18.2562 24.0913C18.2562 23.1341 17.4804 22.3581 16.5231 22.3581Z" fill="#B59DFF"/>
<path d="M19.3539 15.5408H4.56395C3.60661 15.5408 2.83081 16.3167 2.83081 17.2739C2.83081 18.2313 3.60672 19.0071 4.56395 19.0071H19.3539C20.3113 19.0071 21.0871 18.2312 21.0871 17.2739C21.0872 16.3167 20.3113 15.5408 19.3539 15.5408Z" fill="#B59DFF"/>
</svg>
