<svg width="32" height="31" viewBox="0 0 32 31" fill="none" xmlns="http://www.w3.org/2000/svg">
<path d="M1.79167 27.125C1.4491 27.125 1.12056 26.9889 0.878321 26.7467C0.636086 26.5045 0.5 26.1759 0.5 25.8333V19.375C0.5 19.0324 0.636086 18.7039 0.878321 18.4617C1.12056 18.2194 1.4491 18.0833 1.79167 18.0833C2.13424 18.0833 2.46278 18.2194 2.70501 18.4617C2.94725 18.7039 3.08333 19.0324 3.08333 19.375V25.8333C3.08333 26.1759 2.94725 26.5045 2.70501 26.7467C2.46278 26.9889 2.13424 27.125 1.79167 27.125Z" fill="#FEFEFE"/>
<path d="M5.66667 31C2.8179 31 0.5 28.6821 0.5 25.8333C0.5 25.4908 0.636086 25.1622 0.878321 24.92C1.12056 24.6778 1.4491 24.5417 1.79167 24.5417C2.13424 24.5417 2.46278 24.6778 2.70501 24.92C2.94725 25.1622 3.08333 25.4908 3.08333 25.8333C3.08333 27.2581 4.24196 28.4167 5.66667 28.4167C6.00924 28.4167 6.33778 28.5528 6.58001 28.795C6.82225 29.0372 6.95833 29.3658 6.95833 29.7083C6.95833 30.0509 6.82225 30.3795 6.58001 30.6217C6.33778 30.8639 6.00924 31 5.66667 31ZM30.2083 27.125C29.8658 27.125 29.5372 26.9889 29.295 26.7467C29.0528 26.5045 28.9167 26.1759 28.9167 25.8333V19.375C28.9167 19.0324 29.0528 18.7039 29.295 18.4617C29.5372 18.2194 29.8658 18.0833 30.2083 18.0833C30.5509 18.0833 30.8794 18.2194 31.1217 18.4617C31.3639 18.7039 31.5 19.0324 31.5 19.375V25.8333C31.5 26.1759 31.3639 26.5045 31.1217 26.7467C30.8794 26.9889 30.5509 27.125 30.2083 27.125Z" fill="#FEFEFE"/>
<path d="M26.3333 31H5.66667C5.3241 31 4.99556 30.8639 4.75332 30.6217C4.51109 30.3794 4.375 30.0509 4.375 29.7083C4.375 29.3658 4.51109 29.0372 4.75332 28.795C4.99556 28.5527 5.3241 28.4167 5.66667 28.4167H26.3333C26.6759 28.4167 27.0044 28.5527 27.2467 28.795C27.4889 29.0372 27.625 29.3658 27.625 29.7083C27.625 30.0509 27.4889 30.3794 27.2467 30.6217C27.0044 30.8639 26.6759 31 26.3333 31Z" fill="#FEFEFE"/>
<path d="M26.3335 31C25.9909 31 25.6624 30.8639 25.4201 30.6217C25.1779 30.3794 25.0418 30.0509 25.0418 29.7083C25.0418 29.3658 25.1779 29.0372 25.4201 28.795C25.6624 28.5528 25.9909 28.4167 26.3335 28.4167C27.7582 28.4167 28.9168 27.258 28.9168 25.8333C28.9168 25.4908 29.0529 25.1622 29.2951 24.92C29.5374 24.6778 29.8659 24.5417 30.2085 24.5417C30.5511 24.5417 30.8796 24.6778 31.1218 24.92C31.3641 25.1622 31.5002 25.4908 31.5002 25.8333C31.5002 28.6821 29.1823 31 26.3335 31ZM16.0002 23.25C15.6576 23.25 15.3291 23.1139 15.0868 22.8717C14.8446 22.6294 14.7085 22.3009 14.7085 21.9583V1.29167C14.7085 0.949095 14.8446 0.620555 15.0868 0.378321C15.3291 0.136086 15.6576 0 16.0002 0C16.3427 0 16.6713 0.136086 16.9135 0.378321C17.1557 0.620555 17.2918 0.949095 17.2918 1.29167V21.9583C17.2918 22.3009 17.1557 22.6294 16.9135 22.8717C16.6713 23.1139 16.3427 23.25 16.0002 23.25Z" fill="#FEFEFE"/>
<path d="M16 23.25C15.8303 23.2503 15.6623 23.217 15.5055 23.1521C15.3488 23.0871 15.2065 22.9918 15.0868 22.8715L7.77983 15.5652C7.65646 15.4461 7.55806 15.3035 7.49036 15.146C7.42267 14.9884 7.38704 14.8189 7.38555 14.6474C7.38406 14.4759 7.41674 14.3058 7.48168 14.147C7.54663 13.9883 7.64254 13.8441 7.76382 13.7228C7.8851 13.6015 8.02931 13.5056 8.18806 13.4407C8.3468 13.3757 8.51688 13.343 8.68839 13.3445C8.8599 13.346 9.02939 13.3817 9.18698 13.4493C9.34456 13.517 9.48709 13.6154 9.60625 13.7388L16.9126 21.0451C17.0931 21.2257 17.2161 21.4558 17.2659 21.7063C17.3157 21.9567 17.2902 22.2163 17.1926 22.4523C17.0949 22.6883 16.9295 22.89 16.7172 23.032C16.505 23.1739 16.2554 23.2498 16 23.25Z" fill="#FEFEFE"/>
<path d="M16.0001 23.25C15.7447 23.2499 15.495 23.1742 15.2827 23.0322C15.0703 22.8903 14.9048 22.6886 14.807 22.4526C14.7093 22.2166 14.6837 21.9569 14.7335 21.7064C14.7834 21.4559 14.9063 21.2258 15.0869 21.0451L22.3932 13.7388C22.5124 13.6154 22.6549 13.517 22.8125 13.4493C22.9701 13.3817 23.1396 13.346 23.3111 13.3445C23.4826 13.343 23.6527 13.3757 23.8114 13.4407C23.9702 13.5056 24.1144 13.6015 24.2357 13.7228C24.3569 13.8441 24.4529 13.9883 24.5178 14.147C24.5827 14.3058 24.6154 14.4759 24.6139 14.6474C24.6124 14.8189 24.5768 14.9884 24.5091 15.146C24.4414 15.3035 24.343 15.4461 24.2197 15.5652L16.9133 22.8715C16.7936 22.9918 16.6513 23.0871 16.4946 23.1521C16.3378 23.217 16.1698 23.2503 16.0001 23.25Z" fill="#FEFEFE"/>
</svg>
