<svg width="97" height="98" viewBox="0 0 97 98" fill="none" xmlns="http://www.w3.org/2000/svg">
<path d="M85.3863 68.818C85.1275 68.7107 84.8427 68.6826 84.568 68.7373C84.2932 68.7919 84.0408 68.9268 83.8427 69.1248L68.3639 84.6037C68.1657 84.8017 68.0307 85.0541 67.976 85.3289C67.9213 85.6038 67.9493 85.8886 68.0566 86.1475C68.1638 86.4063 68.3454 86.6276 68.5785 86.7832C68.8115 86.9388 69.0854 87.0218 69.3656 87.0216H84.8444C85.0305 87.0217 85.2147 86.985 85.3865 86.9139C85.5584 86.8427 85.7145 86.7384 85.8461 86.6068C85.9776 86.4753 86.0819 86.3192 86.1531 86.1473C86.2243 85.9754 86.2609 85.7913 86.2609 85.6052V70.1264C86.2608 69.8463 86.1776 69.5725 86.022 69.3396C85.8663 69.1067 85.6451 68.9252 85.3863 68.818ZM72.7846 84.189L83.4277 73.5459V84.189H72.7846Z" fill="#1D1D1B" fill-opacity="0.25"/>
<path d="M95.6257 46.1149C95.3669 46.0077 95.0821 45.9796 94.8073 46.0342C94.5325 46.0888 94.2801 46.2237 94.082 46.4218L89.84 50.6638V21.8211C89.84 21.4454 89.6908 21.0851 89.4251 20.8195C89.1595 20.5539 88.7992 20.4047 88.4236 20.4047H77.5408L81.4912 16.4542L81.4929 16.4523L85.2994 12.6458C86.1149 11.8303 86.5641 10.7454 86.5641 9.59195C86.5641 8.43847 86.1149 7.35398 85.2994 6.53806L80.8977 2.13638C80.0822 1.32084 78.9973 0.871704 77.8438 0.871704C76.6904 0.871704 75.6057 1.32084 74.7899 2.13638L70.9816 5.94474L66.3798 10.5466L56.5219 20.4045H12.5563V6.39218C12.5563 6.20618 12.5197 6.022 12.4485 5.85015C12.3773 5.6783 12.273 5.52216 12.1415 5.39064C12.0099 5.25911 11.8538 5.15478 11.6819 5.0836C11.5101 5.01242 11.3259 4.97578 11.1399 4.97578C4.99746 4.97616 0 9.97324 0 16.1161V76.2751C0 76.3797 0.0120625 76.4815 0.0335488 76.5795C0.229188 79.186 1.35684 81.6077 3.24142 83.4461C5.25586 85.4108 7.91507 86.4928 10.7294 86.4928H54.0108L45.8594 94.6443C45.6614 94.8424 45.5265 95.0948 45.4719 95.3695C45.4173 95.6442 45.4454 95.929 45.5526 96.1877C45.6598 96.4465 45.8413 96.6677 46.0742 96.8234C46.307 96.979 46.5808 97.0621 46.8609 97.0622H95.0836C95.4593 97.0622 95.8195 96.913 96.0852 96.6474C96.3508 96.3817 96.5 96.0215 96.5 95.6458V47.4235C96.5 47.1434 96.4169 46.8696 96.2612 46.6367C96.1056 46.4037 95.8844 46.2222 95.6257 46.1149ZM76.7935 4.1397C77.3725 3.56032 78.3158 3.56032 78.8948 4.1397L83.2966 8.54157C83.876 9.12076 83.876 10.0637 83.2966 10.6431L80.49 13.4499L73.9865 6.94649L76.7935 4.1397ZM71.9833 8.94962L78.4867 15.4528L75.8878 18.0517L69.3848 11.5485L71.9833 8.94962ZM93.6676 63.3389H91.0543C90.8683 63.3388 90.6841 63.3755 90.5123 63.4466C90.3404 63.5178 90.1843 63.6221 90.0527 63.7537C89.9212 63.8852 89.8169 64.0414 89.7457 64.2132C89.6745 64.3851 89.6379 64.5693 89.6379 64.7553C89.6379 64.9413 89.6745 65.1255 89.7457 65.2973C89.8169 65.4692 89.9212 65.6253 90.0527 65.7569C90.1843 65.8884 90.3404 65.9927 90.5123 66.0639C90.6841 66.1351 90.8683 66.1717 91.0543 66.1717H93.6676V70.4399H91.0543C90.272 70.4399 89.6379 71.0739 89.6379 71.8563C89.6379 72.6387 90.272 73.2727 91.0543 73.2727H93.6676V77.5408H91.0543C90.8683 77.5407 90.6841 77.5774 90.5123 77.6485C90.3404 77.7197 90.1843 77.824 90.0527 77.9556C89.9212 78.0871 89.8169 78.2432 89.7457 78.4151C89.6745 78.587 89.6379 78.7712 89.6379 78.9572C89.6379 79.1432 89.6745 79.3274 89.7457 79.4992C89.8169 79.6711 89.9212 79.8272 90.0527 79.9588C90.1843 80.0903 90.3404 80.1946 90.5123 80.2658C90.6841 80.337 90.8683 80.3736 91.0543 80.3736H93.6676V84.6418H91.0543C90.6787 84.6418 90.3184 84.791 90.0528 85.0567C89.7872 85.3223 89.6379 85.6826 89.6379 86.0582C89.6379 86.4339 89.7872 86.7941 90.0528 87.0598C90.3184 87.3254 90.6787 87.4746 91.0543 87.4746H93.6676V94.23H50.2803L64.5872 79.9233C64.7187 79.7918 64.823 79.6356 64.8942 79.4638C64.9654 79.2919 65.002 79.1077 65.002 78.9217C65.002 78.7357 64.9654 78.5515 64.8942 78.3797C64.823 78.2078 64.7187 78.0517 64.5872 77.9202C64.5247 77.8582 64.4567 77.8021 64.384 77.7526C64.1114 77.5664 63.7824 77.4812 63.4537 77.5118C63.125 77.5424 62.8173 77.6868 62.5838 77.9202L56.8436 83.6604H10.7296C6.43384 83.6604 2.97567 80.3067 2.83959 76.0186C2.84758 75.7511 2.86847 75.4842 2.90216 75.2187L2.90273 75.2142C2.91856 75.0889 2.9376 74.9641 2.95927 74.8401L2.96681 74.7977C3.01817 74.512 3.08467 74.2293 3.16603 73.9507C3.18676 73.8787 3.20825 73.8069 3.23105 73.7358C3.25386 73.6647 3.27817 73.5944 3.30286 73.5241C3.32001 73.4749 3.33698 73.4258 3.35545 73.3769C3.38994 73.2842 3.4265 73.1924 3.4642 73.1014C3.47494 73.0752 3.4855 73.0486 3.49662 73.0224C3.54506 72.9093 3.59538 72.7976 3.64853 72.6871L3.65513 72.673C4.76299 70.3803 6.89372 68.6711 9.45078 68.1407L9.47227 68.136C9.5895 68.112 9.70786 68.0915 9.82698 68.0725C9.84677 68.0693 9.86656 68.0653 9.88673 68.0623C9.99482 68.0463 10.1032 68.0325 10.2118 68.0208C10.2424 68.0174 10.2727 68.0127 10.3034 68.0097C10.4089 67.9996 10.5145 67.9916 10.6203 67.9856C10.6538 67.9835 10.6874 67.9799 10.7209 67.9782C10.8605 67.9712 11.0002 67.9677 11.1399 67.9677C11.3259 67.9677 11.5101 67.931 11.6819 67.8598C11.8538 67.7887 12.0099 67.6843 12.1415 67.5528C12.273 67.4213 12.3773 67.2651 12.4485 67.0933C12.5197 66.9214 12.5563 66.7373 12.5563 66.5513V56.2814C12.5563 55.9057 12.4071 55.5454 12.1415 55.2798C11.8758 55.0142 11.5156 54.865 11.1399 54.865C10.7643 54.865 10.404 55.0142 10.1384 55.2798C9.87273 55.5454 9.72351 55.9057 9.72351 56.2814V65.224C7.33174 65.5265 5.11167 66.5933 3.3611 68.3028C3.17867 68.4824 3.00234 68.6681 2.83243 68.8595V16.1161C2.83243 12.0184 5.81526 8.60377 9.72332 7.9294V50.6161C9.72938 50.9878 9.88127 51.3422 10.1462 51.6028C10.4112 51.8635 10.768 52.0096 11.1397 52.0096C11.5114 52.0096 11.8682 51.8635 12.1332 51.6028C12.3982 51.3422 12.5501 50.9878 12.5561 50.6161V23.2375H53.6892L45.8592 31.0675C45.5969 31.3338 45.4505 31.693 45.452 32.0668C45.4534 32.4405 45.6025 32.7986 45.8668 33.0629C46.131 33.3272 46.4891 33.4763 46.8628 33.4778C47.2366 33.4792 47.5958 33.3329 47.8621 33.0707L58.1102 22.8226L58.1111 22.8217L67.3813 13.5515L73.8843 20.0548L73.1214 20.8178L73.1195 20.8195L44.56 49.3794L38.0568 42.8762L43.6862 37.2467C43.9485 36.9804 44.0949 36.6213 44.0934 36.2475C44.092 35.8737 43.9429 35.5157 43.6786 35.2514C43.4144 34.9871 43.0563 34.8379 42.6826 34.8365C42.3088 34.835 41.9496 34.9814 41.6833 35.2436L35.0521 41.8746C35.017 41.9099 34.9837 41.9471 34.9524 41.986C34.942 41.9988 34.9328 42.0126 34.923 42.0259C34.903 42.0525 34.8834 42.0793 34.8651 42.1072C34.8548 42.1234 34.8454 42.14 34.8356 42.1567C34.8094 42.2001 34.786 42.245 34.7656 42.2913C34.753 42.319 34.7414 42.3471 34.7306 42.3756C34.7268 42.3855 34.7219 42.395 34.7183 42.405L31.9588 50.222L30.0775 55.552C30.0532 55.6222 30.0344 55.6942 30.0213 55.7674H25.3109C25.1249 55.7674 24.9407 55.804 24.7689 55.8752C24.597 55.9464 24.4409 56.0507 24.3093 56.1822C24.1778 56.3138 24.0735 56.4699 24.0023 56.6418C23.9311 56.8136 23.8945 56.9978 23.8945 57.1838C23.8945 57.3698 23.9311 57.554 24.0023 57.7258C24.0735 57.8977 24.1778 58.0538 24.3093 58.1853C24.4409 58.3169 24.597 58.4212 24.7689 58.4924C24.9407 58.5636 25.1249 58.6002 25.3109 58.6002H64.5355C64.7215 58.6002 64.9057 58.5636 65.0776 58.4924C65.2494 58.4212 65.4056 58.3169 65.5371 58.1854C65.6686 58.0539 65.773 57.8977 65.8441 57.7258C65.9153 57.554 65.9519 57.3698 65.9519 57.1838C65.9519 56.9978 65.9153 56.8136 65.8441 56.6417C65.773 56.4699 65.6686 56.3137 65.5371 56.1822C65.4056 56.0507 65.2494 55.9463 65.0776 55.8751C64.9057 55.804 64.7215 55.7674 64.5355 55.7674H36.3935L45.0314 52.7182C45.0385 52.7156 45.0453 52.712 45.0525 52.7094C45.086 52.6969 45.119 52.683 45.1516 52.6681C45.1646 52.662 45.1776 52.6564 45.1903 52.6502C45.2242 52.6332 45.2576 52.6146 45.2904 52.5946C45.3009 52.5882 45.3118 52.5823 45.3222 52.5757C45.3563 52.5539 45.3895 52.5299 45.4221 52.5047C45.4302 52.4985 45.4387 52.493 45.4466 52.4866C45.486 52.4549 45.5246 52.4208 45.5612 52.3842L74.708 23.2377H87.007V53.4968L66.7465 73.7575C66.615 73.889 66.5107 74.0451 66.4395 74.217C66.3683 74.3888 66.3317 74.573 66.3317 74.759C66.3317 74.945 66.3683 75.1292 66.4395 75.3011C66.5107 75.4729 66.615 75.6291 66.7465 75.7606C66.8781 75.8921 67.0342 75.9965 67.206 76.0676C67.3779 76.1388 67.5621 76.1755 67.7481 76.1755C67.9341 76.1755 68.1183 76.1388 68.2901 76.0676C68.462 75.9965 68.6181 75.8921 68.7497 75.7606L68.7502 75.76L93.6676 50.8425V63.3389ZM41.9694 50.7946L37.9123 52.2269L35.2091 49.5237L36.6414 45.4666L41.9694 50.7946Z" fill="#1D1D1B" fill-opacity="0.25"/>
</svg>
