<svg width="20" height="20" viewBox="0 0 20 20" fill="none" xmlns="http://www.w3.org/2000/svg">
<path d="M10 20C8.02219 20 6.08879 19.4135 4.4443 18.3147C2.79981 17.2159 1.51809 15.6541 0.761209 13.8268C0.00433284 11.9996 -0.1937 9.98891 0.192152 8.0491C0.578004 6.10929 1.53041 4.32746 2.92894 2.92894C4.32746 1.53041 6.10929 0.578004 8.0491 0.192152C9.98891 -0.1937 11.9996 0.00433284 13.8268 0.761209C15.6541 1.51809 17.2159 2.79981 18.3147 4.4443C19.4135 6.08879 20 8.02219 20 10C19.9975 12.6514 18.9432 15.1935 17.0683 17.0683C15.1935 18.9432 12.6514 19.9975 10 20ZM10 1.39535C8.29816 1.39535 6.63454 1.90001 5.21951 2.8455C3.80449 3.79099 2.70161 5.13485 2.05034 6.70715C1.39908 8.27944 1.22868 10.0095 1.56069 11.6787C1.8927 13.3478 2.71221 14.881 3.9156 16.0844C5.11898 17.2878 6.65218 18.1073 8.32132 18.4393C9.99046 18.7713 11.7206 18.6009 13.2929 17.9497C14.8652 17.2984 16.209 16.1955 17.1545 14.7805C18.1 13.3655 18.6047 11.7018 18.6047 10C18.6022 7.71866 17.6948 5.53147 16.0817 3.91832C14.4685 2.30516 12.2813 1.39782 10 1.39535Z" fill="black"/>
<path d="M10.9302 15.3488H9.06974C8.88471 15.3488 8.70725 15.2753 8.57641 15.1445C8.44558 15.0137 8.37207 14.8362 8.37207 14.6512C8.37207 14.4661 8.44558 14.2887 8.57641 14.1578C8.70725 14.027 8.88471 13.9535 9.06974 13.9535H10.9302C11.1152 13.9535 11.2927 14.027 11.4235 14.1578C11.5544 14.2887 11.6279 14.4661 11.6279 14.6512C11.6279 14.8362 11.5544 15.0137 11.4235 15.1445C11.2927 15.2753 11.1152 15.3488 10.9302 15.3488Z" fill="black"/>
<path d="M9.99978 15.3488C9.8155 15.3464 9.63944 15.2721 9.50912 15.1418C9.3788 15.0115 9.30452 14.8354 9.30211 14.6511V8.79996C9.14497 8.74651 9.01204 8.63879 8.92718 8.49615C8.84233 8.35351 8.8111 8.18529 8.83911 8.0217C8.86712 7.8581 8.95254 7.70985 9.08002 7.60357C9.20751 7.49729 9.3687 7.43994 9.53467 7.44182H9.99978C10.1841 7.44423 10.3601 7.5185 10.4904 7.64883C10.6208 7.77915 10.695 7.95521 10.6975 8.13949V14.6511C10.695 14.8354 10.6208 15.0115 10.4904 15.1418C10.3601 15.2721 10.1841 15.3464 9.99978 15.3488Z" fill="black"/>
<path d="M10.0001 6.27904C10.5138 6.27904 10.9303 5.86256 10.9303 5.34881C10.9303 4.83506 10.5138 4.41858 10.0001 4.41858C9.4863 4.41858 9.06982 4.83506 9.06982 5.34881C9.06982 5.86256 9.4863 6.27904 10.0001 6.27904Z" fill="black"/>
</svg>
