<svg width="20" height="21" viewBox="0 0 20 21" fill="none" xmlns="http://www.w3.org/2000/svg">
<path d="M9.01968 10.3972C9.54191 10.7454 10.4582 10.7454 10.9806 10.3971L10.9809 10.397L19.8819 4.46292C19.59 3.61854 18.7875 3.01025 17.8451 3.01025H2.15502C1.21263 3.01025 0.410159 3.61854 0.118164 4.46292L9.01941 10.397L9.01968 10.3972Z" fill="#1D1D1D"/>
<path d="M11.6308 11.372L11.6305 11.3722C11.1734 11.6769 10.5866 11.8293 10 11.8293C9.41328 11.8293 8.82671 11.6769 8.36956 11.3721L8.36936 11.372L0 5.79248V15.8344C0 17.0226 0.966687 17.9893 2.15494 17.9893H17.8451C19.0334 17.9893 20 17.0226 20 15.8344V5.79248L11.6308 11.372Z" fill="#1D1D1D"/>
</svg>
