<svg width="20" height="21" viewBox="0 0 20 21" fill="none" xmlns="http://www.w3.org/2000/svg">
<g clip-path="url(#clip0_164_1734)">
<path fill-rule="evenodd" clip-rule="evenodd" d="M19.6343 18.0919C19.5015 18.2243 19.3413 18.3936 19.1715 18.5727C18.7478 19.0224 18.2184 19.5814 17.8866 19.8082C16.1409 21.0011 13.8054 20.4303 12.1534 19.742C9.97418 18.8339 7.60156 17.1603 5.47121 15.0296C3.33887 12.8989 1.66535 10.5255 0.757342 8.3475C0.0698416 6.69516 -0.502151 4.35922 0.690935 2.61312C0.917498 2.28109 1.47785 1.75254 1.92699 1.32797C2.10668 1.15867 2.27465 0.998711 2.40746 0.866328C2.64325 0.631709 2.96235 0.5 3.29498 0.5C3.62761 0.5 3.94671 0.631709 4.1825 0.866328L7.39453 4.07742C7.62902 4.3132 7.76065 4.63221 7.76065 4.96475C7.76065 5.29728 7.62902 5.61629 7.39453 5.85207L6.51953 6.72531C6.22731 7.01539 6.03657 7.39208 5.97569 7.79931C5.91482 8.20653 5.98706 8.62253 6.18168 8.98539C7.38518 11.2569 9.24318 13.1146 11.5149 14.3177C11.8777 14.5122 12.2936 14.5844 12.7007 14.5234C13.1078 14.4624 13.4843 14.2716 13.7742 13.9793L14.647 13.106C14.8828 12.8714 15.2019 12.7397 15.5345 12.7397C15.8672 12.7397 16.1863 12.8714 16.4221 13.106L19.6343 16.3177C19.8688 16.5534 20.0004 16.8723 20.0004 17.2048C20.0004 17.5373 19.8688 17.8562 19.6343 18.0919Z" fill="#1D1D1D"/>
</g>
<defs>
<clipPath id="clip0_164_1734">
<rect width="20" height="20" fill="white" transform="translate(0 0.5)"/>
</clipPath>
</defs>
</svg>
