<svg width="34" height="34" viewBox="0 0 34 34" fill="none" xmlns="http://www.w3.org/2000/svg">
<path d="M24.4886 0H9.51137C4.25839 0 0 4.25894 0 9.51261V24.4918C0 29.7455 4.25839 34.0044 9.51137 34.0044H24.4886C29.7416 34.0044 34 29.7455 34 24.4918V9.51261C34 4.25894 29.7416 0 24.4886 0Z" fill="#02B0F4"/>
<path d="M25.5371 11.6411C25.4928 11.4635 25.4293 11.4096 25.3215 11.3557C25.0869 11.2416 24.6653 11.3399 24.6653 11.3399C24.6653 11.3399 9.67533 15.183 8.79395 15.6808C8.60372 15.7886 8.53714 15.8552 8.4991 15.9376C8.31838 16.334 8.74639 16.5591 8.74639 16.5591L12.3671 18.1287C12.3671 18.1287 12.5034 18.1636 12.5573 18.1351C13.4577 17.6785 21.6185 13.5405 22.0782 13.42C22.1511 13.4041 22.1986 13.4358 22.1828 13.4802C21.945 14.089 14.6942 19.4034 14.6942 19.4034C14.6942 19.4034 14.6656 19.4319 14.6466 19.47L14.6371 19.4636L13.9396 23.1387C13.9396 23.1387 13.686 24.2612 14.9288 23.2306C15.807 22.5045 16.644 21.9084 17.0625 21.6198C18.2641 22.6282 19.5545 23.7412 20.103 24.3087C20.3788 24.5941 20.6261 24.6607 20.8322 24.6734C21.3997 24.7051 21.6185 24.0995 21.6185 24.0995C21.6185 24.0995 25.2645 13.7149 25.4864 12.2975C25.5086 12.158 25.5276 12.0723 25.5371 11.974C25.5498 11.8409 25.553 11.7045 25.5371 11.6411Z" fill="white"/>
</svg>
