<svg width="56" height="57" viewBox="0 0 56 57" fill="none" xmlns="http://www.w3.org/2000/svg">
<path d="M27.5625 0.9375C12.3638 0.9375 0 13.3013 0 28.5C0 43.6988 12.3638 56.0625 27.5625 56.0625C42.7613 56.0625 55.125 43.6988 55.125 28.5C55.125 13.3013 42.7613 0.9375 27.5625 0.9375ZM27.5625 52.125C14.5353 52.125 3.9375 41.5272 3.9375 28.5C3.9375 15.4728 14.5353 4.875 27.5625 4.875C40.5897 4.875 51.1875 15.4728 51.1875 28.5C51.1875 41.5272 40.5897 52.125 27.5625 52.125ZM29.5313 12.75V28.5C29.5313 28.824 29.4514 29.1431 29.2985 29.4288C29.1457 29.7146 28.9247 29.9582 28.6552 30.138L16.8427 38.013C16.4082 38.3028 15.8765 38.4081 15.3644 38.3059C14.8523 38.2036 14.4018 37.9021 14.112 37.4677C13.8222 37.0332 13.7169 36.5015 13.8191 35.9894C13.9214 35.4773 14.2229 35.0268 14.6573 34.737L25.5938 27.4467V12.75C25.5938 12.2279 25.8012 11.7271 26.1704 11.3579C26.5396 10.9887 27.0404 10.7813 27.5625 10.7813C28.0846 10.7813 28.5854 10.9887 28.9546 11.3579C29.3238 11.7271 29.5313 12.2279 29.5313 12.75Z" fill="#B59DFF"/>
</svg>
