<svg width="34" height="34" viewBox="0 0 34 34" fill="none" xmlns="http://www.w3.org/2000/svg">
<path d="M24.4817 0.00488281H9.50869C4.25719 0.00488281 0 4.26262 0 9.51481V24.4898C0 29.742 4.25719 33.9997 9.50869 33.9997H24.4817C29.7332 33.9997 33.9904 29.742 33.9904 24.4898V9.51481C33.9904 4.26262 29.7332 0.00488281 24.4817 0.00488281Z" fill="#01E311"/>
<path d="M25.4543 11.626C23.9012 8.87764 20.9662 7.09295 17.7681 6.99151C14.5257 6.89007 11.1913 8.52578 9.48604 11.6514C7.93296 14.5012 8.05657 18.0008 9.79983 20.7872C9.56845 22.0584 9.33707 23.3264 9.10252 24.5944C10.4591 24.3725 11.8157 24.1506 13.1754 23.9319C13.6635 24.1981 16.9187 25.8972 20.719 24.4929C21.1944 24.3186 24.8679 22.8858 26.1865 18.8504C27.3877 15.1764 25.7301 12.1205 25.4543 11.6292V11.626ZM24.8553 18.3051C23.7903 21.7192 20.7158 22.9682 20.3101 23.1235C16.757 24.4929 13.6889 22.6195 13.3592 22.4103C12.532 22.5878 11.7047 22.7653 10.8743 22.9396L11.2642 20.4164C9.57479 18.0674 9.35292 14.964 10.6968 12.4248C12.1073 9.75573 14.906 8.3546 17.6255 8.40532C20.3196 8.45604 22.814 9.92691 24.1548 12.2251C24.3925 12.6372 25.8251 15.1922 24.8521 18.302L24.8553 18.3051Z" fill="white"/>
<path d="M15.2262 11.8132C15.3276 11.8132 15.4163 11.8766 15.448 11.9717C15.616 12.4789 16.2816 14.029 16.2309 14.1971C16.1675 14.3968 15.4037 14.9832 15.372 15.2685C15.3434 15.5538 15.9108 16.3495 16.5067 16.974C17.3181 17.8235 18.6017 18.3782 18.7063 18.4258C18.8109 18.4733 19.6065 17.2941 19.7713 17.2212C19.9361 17.1483 22.0534 18.2895 22.0534 18.486C22.0534 18.6826 21.8886 19.3514 21.4987 19.884C21.2261 20.2549 20.6271 20.4165 20.1834 20.4768C20.1739 20.4768 20.1612 20.4768 20.1517 20.4768C19.8157 20.4229 17.4892 20.1598 15.4924 18.1881C13.8664 16.584 13.3783 14.7613 13.2262 14.0322C13.2262 14.0227 13.223 14.0132 13.223 14.0005C13.2135 13.7564 13.223 13.0337 13.7365 12.4028C13.9361 12.1588 14.2816 11.9274 14.4084 11.8481C14.4401 11.8291 14.475 11.8196 14.513 11.8196H15.2293L15.2262 11.8132Z" fill="white"/>
</svg>
