<svg width="1140" height="370" fill="none" xmlns="http://www.w3.org/2000/svg"><path d="M149.4 8v33m0-33L8 149v33M149.4 8l141.4 141v33M149.4 41 8 182M149.4 41l141.4 141M149.4 41v19.5M8 182v19.7M290.8 182v19.7M8 221.4 149.4 80l141.4 141.4-141.4 141.4L8 221.4Z" stroke="#000" stroke-width="10"/><path d="M148.5 283c34.518 0 62.5-27.982 62.5-62.5S183.018 158 148.5 158 86 185.982 86 220.5s27.982 62.5 62.5 62.5Z" fill="#FF4646"/><path d="M347.9 238.5h24.6l19.6-106 19.4 106h23.6l-23.3-122.3h-40.4l-23.5 122.3Z" fill="#1D1D1B"/><path d="M379.2 202.9h36.4l3.2 13.7h-42.9l3.3-13.7Zm72.7-86.8v122.4l23.2-.1V129.2h24.6v70s24.5 2 23.2-13v-57.1s2.7-14.2-23-13.1h-48v.1Z" fill="#1D1D1B"/><path d="M474.2 186.2h27.5l.2 13.1h-28l.3-13.1Zm63.3-70.1v122.3h63.8v-13h-40.8v-43.3h28.9V169h-28.9l.1-39.8h40.7v-13.1h-63.8Zm134.5 0-17.3 46.1-18.5-46.1h-22l5.1 13.2 18.3 48-23.1 61.2h21.4l16.8-45.8 18.7 45.8h21.7L670 177.3l23.1-61.2H672Zm44.4 0v41.5s1 3.9 3.7 6.3c2.6 2.4 36.7 34.4 36.7 34.4v26.9H736l-.1-19.7-19.5.1v22.1s.3 10.8 16.4 10.8l29.6-.1s14.4-.3 13.7-12.9v-27.4s.2-4.5-4.4-8l-35.6-33.4-.1-27.5 20.6.1v19.3h19.5v-22.3s-.5-8.9-13.3-10.1h-46.4v-.1Zm71.5 0v122.3l19.7.1v-39.2h22.7s18.4 1.9 18.1-11.9v-57.9s2-12.1-14.5-13.3h-5.1l-.1 70.1h-21.1l.2-70.1-19.9-.1Z" fill="#1D1D1B"/><path d="M830.4 116.1h-24.1v13.1h24.1v-13.1Zm74.1 109.4-11-.1v13.1l17.1-.1s17.4-.1 17.4-11.6V126.2s-.4-9.5-17.7-10.1h-16.8v13.1h11.2l-.2 96.3Z" fill="#1D1D1B"/><path d="m885.8 225.5 10.2-.1v13.1l-15.9-.1s-16.2-.1-16.2-11.6V126.2s.4-9.5 16.4-10.1H896v13.1h-10.4l.2 96.3Zm57.5-109.4v122.3h19.6v-41.9h8.6l17 41.9h19.3l-18.4-42s13.4 0 13.8-11.5l-.1-10.2-19.2.1v8.6l-21.1.1v-54.2h21.1v42.6h19.3c-.1-14.2-.1-28.4-.2-42.6 0-1 .8-5.4-4-10-4-3-9.1-3.1-10.3-3.2h-45.4Z" fill="#1D1D1B"/><path d="m984.9 171-1 .6v4l19.2.3.1-4.9h-18.3Zm89.3-41.8v-13.1h-57.9v13.1h18.3l.2 109.2h20l.1-109.2h19.3Z" fill="#1D1D1B"/><path d="M330 282.8v-19.5h16.4v19.5h-2v-18.3l.5.6h-13.4l.5-.6v18.3h-2Zm23 0v-19.5h7.3c1.7 0 3.1.3 4.3.8 1.2.5 2.1 1.3 2.7 2.3.6 1 1 2.2 1 3.6s-.3 2.6-1 3.6c-.6 1-1.5 1.7-2.7 2.3-1.2.5-2.6.8-4.3.8h-6.2l.9-1v7.1h-2Zm2-7-.9-1h6.1c2 0 3.4-.4 4.4-1.3 1-.9 1.5-2.1 1.5-3.6 0-1.6-.5-2.8-1.5-3.6-1-.9-2.5-1.3-4.4-1.3h-6.1l.9-1v11.8Zm26.3 7.2c-1.5 0-2.8-.2-4.1-.7-1.2-.5-2.3-1.2-3.3-2.1-.9-.9-1.6-2-2.1-3.1-.5-1.2-.8-2.5-.8-4 0-1.4.3-2.7.8-3.9.5-1.2 1.2-2.3 2.1-3.1.9-.9 2-1.6 3.3-2.1 1.2-.5 2.6-.8 4.1-.8 1.5 0 2.8.3 4.1.8 1.2.5 2.3 1.2 3.2 2.1.9.9 1.6 1.9 2.1 3.1.5 1.2.8 2.5.8 4 0 1.4-.3 2.7-.8 4-.5 1.2-1.2 2.3-2.1 3.1-.9.9-2 1.6-3.2 2.1-1.3.3-2.6.6-4.1.6Zm0-1.9c1.2 0 2.2-.2 3.2-.6 1-.4 1.9-1 2.6-1.7.7-.7 1.3-1.6 1.7-2.6.4-1 .6-2.1.6-3.2 0-1.2-.2-2.2-.6-3.2-.4-1-1-1.8-1.7-2.6-.7-.7-1.6-1.3-2.6-1.7-1-.4-2.1-.6-3.2-.6-1.2 0-2.3.2-3.3.6-1 .4-1.9 1-2.6 1.7-.7.7-1.3 1.6-1.7 2.6-.4 1-.6 2-.6 3.2 0 1.2.2 2.2.6 3.2.4 1 1 1.8 1.7 2.6.7.7 1.6 1.3 2.6 1.7 1 .4 2.1.6 3.3.6Zm15.1 1.7v-19.5h2v16.2l12.5-16.2h1.9v19.5h-2v-16.1l-12.5 16.1h-1.9Zm20.7-2.3.8-1.5c.9.7 1.8 1.3 2.9 1.7 1.1.4 2.2.5 3.2.6 1.1 0 2.1-.2 3-.5.9-.3 1.6-.8 2.2-1.4.6-.6.8-1.4.8-2.3 0-1.1-.5-2-1.4-2.6-.9-.6-2.1-.9-3.7-.9h-4.2v-1.7h4.1c1.4 0 2.4-.3 3.2-.9.8-.6 1.2-1.4 1.2-2.5 0-.7-.2-1.4-.7-1.9-.4-.5-1-.9-1.8-1.2-.7-.3-1.6-.5-2.5-.5-.9 0-1.9.1-2.9.4-1 .3-1.9.7-2.9 1.3l-.7-1.7c1.2-.7 2.4-1.2 3.6-1.4 1.2-.3 2.5-.4 3.6-.3 1.2.1 2.2.4 3.1.8.9.4 1.7 1 2.3 1.8.6.7.8 1.6.8 2.6 0 .9-.2 1.7-.7 2.5-.5.7-1.1 1.3-2 1.6-.8.4-1.8.6-3 .6l.1-.6c1.3 0 2.4.2 3.4.6 1 .4 1.7 1 2.2 1.8.5.7.8 1.6.8 2.6 0 .9-.2 1.8-.7 2.5-.5.7-1.1 1.3-2 1.8-.8.5-1.7.8-2.8 1.1-1 .2-2.1.3-3.2.2-1.1-.1-2.2-.3-3.3-.7-.9-.6-1.9-1.2-2.8-1.9Zm20 2.3v-19.5h8.1c2.1 0 3.7.4 4.8 1.3 1.2.8 1.8 2.1 1.8 3.7s-.6 2.8-1.7 3.7c-1.1.8-2.6 1.2-4.5 1.2l.5-.7c2.2 0 3.8.4 5 1.3 1.1.9 1.7 2.1 1.7 3.8 0 1.7-.6 3-1.8 3.9-1.2.9-2.9 1.4-5.3 1.4l-8.6-.1Zm2.1-1.6h6.6c1.7 0 2.9-.3 3.8-.9.9-.6 1.3-1.6 1.3-2.8 0-1.3-.4-2.2-1.3-2.8-.9-.6-2.1-.9-3.8-.9h-6.6v7.4Zm0-9.1h6c1.5 0 2.7-.3 3.5-.9.8-.6 1.2-1.5 1.2-2.7 0-1.2-.4-2.1-1.2-2.7-.8-.6-2-.9-3.5-.9h-6v7.2Zm27.3 10.9c-1.5 0-2.8-.2-4.1-.7-1.2-.5-2.3-1.2-3.3-2.1-.9-.9-1.6-2-2.1-3.1-.5-1.2-.8-2.5-.8-4 0-1.4.3-2.7.8-3.9.5-1.2 1.2-2.3 2.1-3.1.9-.9 2-1.6 3.3-2.1 1.2-.5 2.6-.8 4.1-.8 1.5 0 2.8.3 4.1.8 1.2.5 2.3 1.2 3.2 2.1.9.9 1.6 1.9 2.1 3.1.5 1.2.8 2.5.8 4 0 1.4-.3 2.7-.8 4-.5 1.2-1.2 2.3-2.1 3.1-.9.9-2 1.6-3.2 2.1-1.2.3-2.6.6-4.1.6Zm0-1.9c1.2 0 2.2-.2 3.2-.6 1-.4 1.9-1 2.6-1.7.7-.7 1.3-1.6 1.7-2.6.4-1 .6-2.1.6-3.2 0-1.2-.2-2.2-.6-3.2-.4-1-1-1.8-1.7-2.6-.7-.7-1.6-1.3-2.6-1.7-1-.4-2.1-.6-3.2-.6-1.2 0-2.3.2-3.3.6-1 .4-1.9 1-2.6 1.7-.7.7-1.3 1.6-1.7 2.6-.4 1-.6 2-.6 3.2 0 1.2.2 2.2.6 3.2.4 1 1 1.8 1.7 2.6.7.7 1.6 1.3 2.6 1.7 1.1.4 2.2.6 3.3.6Zm27.6.7v-16.7h-9.3l-.2 4.7c-.1 1.5-.1 2.9-.3 4.2-.1 1.3-.3 2.5-.6 3.6-.2 1.1-.6 1.9-1 2.6-.4.7-.9 1.1-1.6 1.2l-2.3-.4c.7 0 1.4-.2 1.8-.8.5-.6.9-1.4 1.1-2.4.3-1 .5-2.3.6-3.7.1-1.4.2-2.9.3-4.5l.2-6.3H496v18.5h-1.9Zm-15.9 5.4V281h20.9v6.2h-1.9v-4.4h-17v4.4h-2Zm33.6-4.2c-1.5 0-2.8-.2-4.1-.7-1.2-.5-2.3-1.2-3.2-2.1-.9-.9-1.6-1.9-2.1-3.1-.5-1.2-.8-2.5-.8-4 0-1.4.3-2.8.8-4 .5-1.2 1.2-2.3 2.1-3.1.9-.9 2-1.6 3.3-2.1 1.2-.5 2.6-.8 4.1-.8 1.4 0 2.7.2 4 .7 1.2.5 2.3 1.2 3.1 2.1l-1.3 1.3c-.8-.8-1.7-1.4-2.6-1.8-1-.4-2-.6-3.1-.6-1.2 0-2.3.2-3.3.6-1 .4-1.9 1-2.6 1.7-.7.7-1.3 1.6-1.8 2.6-.4 1-.6 2-.6 3.2 0 1.2.2 2.2.6 3.2.4 1 1 1.8 1.8 2.6.7.7 1.6 1.3 2.6 1.7 1 .4 2.1.6 3.3.6 1.1 0 2.2-.2 3.1-.6 1-.4 1.8-1 2.6-1.8l1.3 1.3c-.9.9-1.9 1.7-3.1 2.1-1.2.4-2.7 1-4.1 1Zm15-.2v-18.3l.6.6H520v-1.8h15.7v1.8h-7.4l.5-.6v18.3h-2Zm12.6 0v-19.5h8.1c2.1 0 3.7.4 4.8 1.3 1.2.8 1.8 2.1 1.8 3.7s-.6 2.8-1.7 3.7c-1.1.8-2.6 1.2-4.5 1.2l.5-.7c2.2 0 3.8.4 5 1.3 1.1.9 1.7 2.1 1.7 3.8 0 1.7-.6 3-1.8 3.9-1.2.9-2.9 1.4-5.3 1.4l-8.6-.1Zm2-1.6h6.6c1.7 0 2.9-.3 3.8-.9.9-.6 1.3-1.6 1.3-2.8 0-1.3-.4-2.2-1.3-2.8-.9-.6-2.1-.9-3.8-.9h-6.6v7.4Zm0-9.1h6c1.5 0 2.7-.3 3.5-.9.8-.6 1.2-1.5 1.2-2.7 0-1.2-.4-2.1-1.2-2.7-.8-.6-2-.9-3.5-.9h-6v7.2Zm27.4 10.9c-1.5 0-2.8-.2-4.1-.7-1.2-.5-2.3-1.2-3.3-2.1-.9-.9-1.6-2-2.1-3.1-.5-1.2-.8-2.5-.8-4 0-1.4.3-2.7.8-3.9.5-1.2 1.2-2.3 2.1-3.1.9-.9 2-1.6 3.3-2.1 1.2-.5 2.6-.8 4.1-.8 1.5 0 2.8.3 4.1.8 1.2.5 2.3 1.2 3.2 2.1.9.9 1.6 1.9 2.1 3.1.5 1.2.8 2.5.8 4 0 1.4-.3 2.7-.8 4-.5 1.2-1.2 2.3-2.1 3.1-.9.9-2 1.6-3.2 2.1-1.3.3-2.7.6-4.1.6Zm0-1.9c1.2 0 2.2-.2 3.2-.6 1-.4 1.9-1 2.6-1.7.7-.7 1.3-1.6 1.7-2.6.4-1 .6-2.1.6-3.2 0-1.2-.2-2.2-.6-3.2-.4-1-1-1.8-1.7-2.6-.7-.7-1.6-1.3-2.6-1.7-1-.4-2.1-.6-3.2-.6s-2.3.2-3.3.6c-1 .4-1.9 1-2.6 1.7-.7.7-1.3 1.6-1.7 2.6-.4 1-.6 2-.6 3.2 0 1.2.2 2.2.6 3.2.4 1 1 1.8 1.7 2.6.7.7 1.6 1.3 2.6 1.7 1 .4 2.1.6 3.3.6Zm30.9 1.9c-1.5 0-2.8-.2-4.1-.7-1.2-.5-2.3-1.2-3.2-2.1-.9-.9-1.6-1.9-2.1-3.1-.5-1.2-.8-2.5-.8-4 0-1.4.3-2.8.8-4 .5-1.2 1.2-2.3 2.1-3.1.9-.9 2-1.6 3.3-2.1 1.2-.5 2.6-.8 4.1-.8 1.4 0 2.7.2 4 .7 1.2.5 2.3 1.2 3.1 2.1l-1.3 1.3c-.8-.8-1.7-1.4-2.6-1.8-1-.4-2-.6-3.1-.6-1.2 0-2.3.2-3.3.6-1 .4-1.9 1-2.6 1.7-.7.7-1.3 1.6-1.8 2.6-.4 1-.6 2-.6 3.2 0 1.2.2 2.2.6 3.2.4 1 1 1.8 1.8 2.6.7.7 1.6 1.3 2.6 1.7 1 .4 2.1.6 3.3.6 1.1 0 2.2-.2 3.1-.6 1-.4 1.8-1 2.6-1.8l1.3 1.3c-.9.9-1.9 1.7-3.1 2.1-1.2.4-2.6 1-4.1 1Zm11.5-.2v-19.5h16.4v19.5h-2v-18.3l.5.6h-13.4l.5-.6v18.3h-2Zm31.5.2c-1.5 0-2.8-.2-4.1-.7-1.2-.5-2.3-1.2-3.3-2.1-.9-.9-1.6-2-2.1-3.1-.5-1.2-.8-2.5-.8-4 0-1.4.3-2.7.8-3.9.5-1.2 1.2-2.3 2.1-3.1.9-.9 2-1.6 3.3-2.1 1.2-.5 2.6-.8 4.1-.8 1.5 0 2.8.3 4.1.8 1.2.5 2.3 1.2 3.2 2.1.9.9 1.6 1.9 2.1 3.1.5 1.2.8 2.5.8 4 0 1.4-.3 2.7-.8 4-.5 1.2-1.2 2.3-2.1 3.1-.9.9-2 1.6-3.2 2.1-1.3.3-2.6.6-4.1.6Zm0-1.9c1.2 0 2.2-.2 3.2-.6 1-.4 1.9-1 2.6-1.7.7-.7 1.3-1.6 1.7-2.6.4-1 .6-2.1.6-3.2 0-1.2-.2-2.2-.6-3.2-.4-1-1-1.8-1.7-2.6-.7-.7-1.6-1.3-2.6-1.7-1-.4-2.1-.6-3.2-.6-1.2 0-2.3.2-3.3.6-1 .4-1.9 1-2.6 1.7-.7.7-1.3 1.6-1.7 2.6-.4 1-.6 2-.6 3.2 0 1.2.2 2.2.6 3.2.4 1 1 1.8 1.7 2.6.7.7 1.6 1.3 2.6 1.7 1.1.4 2.1.6 3.3.6Zm15.2 1.7v-19.5h7.3c1.7 0 3.1.3 4.3.8 1.2.5 2.1 1.3 2.7 2.3.6 1 1 2.2 1 3.6s-.3 2.6-1 3.6c-.6 1-1.5 1.7-2.7 2.3-1.2.5-2.6.8-4.3.8H659l.9-1v7.1h-2Zm2-7-.9-1h6.1c2 0 3.4-.4 4.4-1.3 1-.9 1.5-2.1 1.5-3.6 0-1.6-.5-2.8-1.5-3.6-1-.9-2.5-1.3-4.4-1.3H659l.9-1v11.8Zm20.7 7v-18.3l.6.6h-7.5v-1.8h15.7v1.8H682l.5-.6v18.3h-1.9Zm12.5 0v-19.5h2v16.2l12.5-16.2h1.9v19.5h-2v-16.1L695 282.8h-1.9Zm22.9 0v-19.5h8.1c2.1 0 3.7.4 4.8 1.3 1.2.8 1.8 2.1 1.8 3.7s-.6 2.8-1.7 3.7c-1.1.8-2.6 1.2-4.5 1.2l.5-.7c2.2 0 3.8.4 5 1.3 1.1.9 1.7 2.1 1.7 3.8 0 1.7-.6 3-1.8 3.9-1.2.9-2.9 1.4-5.3 1.4l-8.6-.1Zm2.1-1.6h6.6c1.7 0 2.9-.3 3.8-.9.9-.6 1.3-1.6 1.3-2.8 0-1.3-.4-2.2-1.3-2.8-.9-.6-2.1-.9-3.8-.9h-6.6v7.4Zm0-9.1h6c1.5 0 2.7-.3 3.5-.9.8-.6 1.2-1.5 1.2-2.7 0-1.2-.4-2.1-1.2-2.7-.8-.6-2-.9-3.5-.9h-6v7.2Zm33.1-8.8h2v19.5h-2v-19.5ZM739 282.8h-2.1v-19.5h2.1v19.5Zm12.4-9h-12.6V272h12.6v1.8Zm17 9.2c-1.5 0-2.8-.2-4.1-.7-1.2-.5-2.3-1.2-3.3-2.1-.9-.9-1.6-2-2.1-3.1-.5-1.2-.8-2.5-.8-4 0-1.4.3-2.7.8-3.9.5-1.2 1.2-2.3 2.1-3.1.9-.9 2-1.6 3.3-2.1 1.2-.5 2.6-.8 4.1-.8 1.5 0 2.8.3 4.1.8 1.2.5 2.3 1.2 3.2 2.1.9.9 1.6 1.9 2.1 3.1.5 1.2.8 2.5.8 4 0 1.4-.3 2.7-.8 4-.5 1.2-1.2 2.3-2.1 3.1-.9.9-2 1.6-3.2 2.1-1.3.3-2.7.6-4.1.6Zm0-1.9c1.2 0 2.2-.2 3.2-.6 1-.4 1.9-1 2.6-1.7.7-.7 1.3-1.6 1.7-2.6.4-1 .6-2.1.6-3.2 0-1.2-.2-2.2-.6-3.2-.4-1-1-1.8-1.7-2.6-.7-.7-1.6-1.3-2.6-1.7-1-.4-2.1-.6-3.2-.6-1.2 0-2.3.2-3.3.6-1 .4-1.9 1-2.6 1.7-.7.7-1.3 1.6-1.7 2.6-.4 1-.6 2-.6 3.2 0 1.2.2 2.2.6 3.2.4 1 1 1.8 1.7 2.6.7.7 1.6 1.3 2.6 1.7 1 .4 2.1.6 3.3.6Zm15.1 1.7v-19.5h12.4v1.8H785l.5-.5v18.3l-2-.1Zm21.8.2c-1.5 0-2.8-.2-4.1-.7-1.2-.5-2.3-1.2-3.3-2.1-.9-.9-1.6-2-2.1-3.1-.5-1.2-.8-2.5-.8-4 0-1.4.3-2.7.8-3.9.5-1.2 1.2-2.3 2.1-3.1.9-.9 2-1.6 3.3-2.1 1.2-.5 2.6-.8 4.1-.8 1.5 0 2.8.3 4.1.8 1.2.5 2.3 1.2 3.2 2.1.9.9 1.6 1.9 2.1 3.1.5 1.2.8 2.5.8 4 0 1.4-.3 2.7-.8 4-.5 1.2-1.2 2.3-2.1 3.1-.9.9-2 1.6-3.2 2.1-1.2.3-2.6.6-4.1.6Zm0-1.9c1.2 0 2.2-.2 3.2-.6 1-.4 1.9-1 2.6-1.7.7-.7 1.3-1.6 1.7-2.6.4-1 .6-2.1.6-3.2 0-1.2-.2-2.2-.6-3.2-.4-1-1-1.8-1.7-2.6-.7-.7-1.6-1.3-2.6-1.7-1-.4-2.1-.6-3.2-.6-1.2 0-2.3.2-3.3.6-1 .4-1.9 1-2.6 1.7-.7.7-1.3 1.6-1.7 2.6-.4 1-.6 2-.6 3.2 0 1.2.2 2.2.6 3.2.4 1 1 1.8 1.7 2.6.7.7 1.6 1.3 2.6 1.7 1.1.4 2.2.6 3.3.6Zm31 1.9c-1.5 0-2.8-.2-4.1-.7-1.2-.5-2.3-1.2-3.3-2.1-.9-.9-1.6-2-2.1-3.1-.5-1.2-.8-2.5-.8-4 0-1.4.3-2.7.8-3.9.5-1.2 1.2-2.3 2.1-3.1.9-.9 2-1.6 3.3-2.1 1.2-.5 2.6-.8 4.1-.8 1.5 0 2.8.3 4.1.8 1.2.5 2.3 1.2 3.2 2.1.9.9 1.6 1.9 2.1 3.1.5 1.2.8 2.5.8 4 0 1.4-.3 2.7-.8 4-.5 1.2-1.2 2.3-2.1 3.1-.9.9-2 1.6-3.2 2.1-1.2.3-2.6.6-4.1.6Zm0-1.9c1.2 0 2.2-.2 3.2-.6 1-.4 1.9-1 2.6-1.7.7-.7 1.3-1.6 1.7-2.6.4-1 .6-2.1.6-3.2 0-1.2-.2-2.2-.6-3.2-.4-1-1-1.8-1.7-2.6-.7-.7-1.6-1.3-2.6-1.7-1-.4-2.1-.6-3.2-.6-1.2 0-2.3.2-3.3.6-1 .4-1.9 1-2.6 1.7-.7.7-1.3 1.6-1.7 2.6-.4 1-.6 2-.6 3.2 0 1.2.2 2.2.6 3.2.4 1 1 1.8 1.7 2.6.7.7 1.6 1.3 2.6 1.7 1.1.4 2.2.6 3.3.6Zm15.2 1.7v-19.5h14.2v1.8h-12.2v6.4h6.4c2.3 0 4 .5 5.2 1.4 1.2.9 1.8 2.3 1.8 4.1 0 1.9-.6 3.3-2 4.3-1.3 1-3.1 1.5-5.5 1.5h-7.9Zm2-1.6h5.9c1.8 0 3.2-.3 4.1-1 .9-.7 1.4-1.7 1.4-3.1 0-2.7-1.8-4-5.5-4h-5.9v8.1Zm26.8 1.8c-1.5 0-2.8-.2-4.1-.7-1.2-.5-2.3-1.2-3.3-2.1-.9-.9-1.6-2-2.1-3.1-.5-1.2-.8-2.5-.8-4 0-1.4.3-2.7.8-3.9.5-1.2 1.2-2.3 2.1-3.1.9-.9 2-1.6 3.3-2.1 1.2-.5 2.6-.8 4.1-.8 1.5 0 2.8.3 4.1.8 1.2.5 2.3 1.2 3.2 2.1.9.9 1.6 1.9 2.1 3.1.5 1.2.8 2.5.8 4 0 1.4-.3 2.7-.8 4-.5 1.2-1.2 2.3-2.1 3.1-.9.9-2 1.6-3.2 2.1-1.3.3-2.7.6-4.1.6Zm0-1.9c1.2 0 2.2-.2 3.2-.6 1-.4 1.9-1 2.6-1.7.7-.7 1.3-1.6 1.7-2.6.4-1 .6-2.1.6-3.2 0-1.2-.2-2.2-.6-3.2-.4-1-1-1.8-1.7-2.6-.7-.7-1.6-1.3-2.6-1.7-1-.4-2.1-.6-3.2-.6-1.2 0-2.3.2-3.3.6-1 .4-1.9 1-2.6 1.7-.7.7-1.3 1.6-1.7 2.6-.4 1-.6 2-.6 3.2 0 1.2.2 2.2.6 3.2.4 1 1 1.8 1.7 2.6.7.7 1.6 1.3 2.6 1.7 1 .4 2.1.6 3.3.6Zm15.1 1.7v-19.5h7.3c1.7 0 3.1.3 4.3.8 1.2.5 2.1 1.3 2.7 2.3.7 1 1 2.2 1 3.6s-.3 2.6-1 3.6c-.6 1-1.5 1.7-2.7 2.3-1.2.5-2.6.8-4.3.8h-6.2l.9-1v7.1h-2Zm2.1-7-.9-1h6.1c2 0 3.4-.4 4.4-1.3 1-.9 1.5-2.1 1.5-3.6 0-1.6-.5-2.8-1.5-3.6-1-.9-2.5-1.3-4.4-1.3h-6.1l.9-1v11.8Zm16.6 5.1c.9.4 1.8.5 2.7.3.8-.2 1.6-.9 2.3-2l.9-1.5.2-.3 7.5-14.1h2.1l-8.9 16.3c-.6 1.1-1.3 2-2.1 2.5-.8.6-1.7.9-2.6.9-.9 0-1.8-.1-2.7-.5l.6-1.6Zm6.1-1.6-8.4-16h2.2l7.4 14.3-1.2 1.7Zm25.5 2.5v-16.7h-9.3l-.2 4.7c-.1 1.5-.1 2.9-.3 4.2-.1 1.3-.3 2.5-.6 3.6-.2 1.1-.6 1.9-1 2.6-.4.7-.9 1.1-1.6 1.2l-2.3-.4c.7 0 1.4-.2 1.8-.8.5-.6.9-1.4 1.1-2.4.3-1 .5-2.3.6-3.7.1-1.4.2-2.9.3-4.5l.2-6.3h13.2v18.5h-1.9Zm-15.9 5.4V281h20.9v6.2h-1.9v-4.4h-17v4.4h-2Zm33.7-4.2c-1.5 0-2.8-.2-4.1-.7-1.3-.5-2.3-1.2-3.3-2.1-.9-.9-1.6-2-2.1-3.1-.5-1.2-.8-2.5-.8-4 0-1.4.3-2.7.8-3.9.5-1.2 1.2-2.3 2.1-3.1.9-.9 2-1.6 3.3-2.1 1.2-.5 2.6-.8 4.1-.8 1.5 0 2.8.3 4.1.8 1.2.5 2.3 1.2 3.2 2.1.9.9 1.6 1.9 2.1 3.1.5 1.2.8 2.5.8 4 0 1.4-.3 2.7-.8 4-.5 1.2-1.2 2.3-2.1 3.1-.9.9-2 1.6-3.2 2.1-1.3.3-2.7.6-4.1.6Zm0-1.9c1.2 0 2.3-.2 3.2-.6 1-.4 1.9-1 2.6-1.7.7-.7 1.3-1.6 1.7-2.6.4-1 .6-2.1.6-3.2 0-1.2-.2-2.2-.6-3.2-.4-1-1-1.8-1.7-2.6-.7-.7-1.6-1.3-2.6-1.7-1-.4-2.1-.6-3.2-.6-1.2 0-2.3.2-3.3.6-1 .4-1.9 1-2.6 1.7-.7.7-1.3 1.6-1.7 2.6-.4 1-.6 2-.6 3.2 0 1.2.2 2.2.6 3.2.4 1 1 1.8 1.7 2.6.7.7 1.6 1.3 2.6 1.7 1 .4 2.1.6 3.3.6Zm15.1 1.7v-19.5h8.1c2.1 0 3.7.4 4.8 1.3 1.2.8 1.8 2.1 1.8 3.7s-.6 2.8-1.7 3.7c-1.1.8-2.6 1.2-4.5 1.2l.5-.7c2.2 0 3.8.4 5 1.3 1.1.9 1.7 2.1 1.7 3.8 0 1.7-.6 3-1.8 3.9-1.2.9-2.9 1.4-5.3 1.4l-8.6-.1Zm2-1.6h6.6c1.6 0 2.9-.3 3.8-.9.9-.6 1.3-1.6 1.3-2.8 0-1.3-.4-2.2-1.3-2.8-.9-.6-2.1-.9-3.8-.9h-6.6v7.4Zm0-9.1h6c1.5 0 2.7-.3 3.4-.9.8-.6 1.2-1.5 1.2-2.7 0-1.2-.4-2.1-1.2-2.7-.8-.6-1.9-.9-3.4-.9h-6v7.2Zm16 10.7 8.9-19.5h2l8.9 19.5h-2.2l-8.2-18.3h.8l-8.2 18.3h-2Zm3.5-5.2.6-1.7h11.3l.6 1.7h-12.5Zm34.4-14.3h2v19.5h-2v-19.5Zm-12.2 19.5h-2.1v-19.5h2.1v19.5Zm12.4-9h-12.6V272h12.6v1.8Zm8.4 9v-19.5h2v16.2l12.5-16.2h1.9v19.5h-2v-16.1l-12.5 16.1h-1.9Zm34.8 0v-6.5l.6.6h-6.4c-1.6 0-2.9-.3-4-.8s-1.9-1.3-2.5-2.3c-.6-1-.9-2.2-.9-3.6 0-1.5.3-2.7.9-3.8.6-1 1.5-1.8 2.7-2.3 1.2-.5 2.5-.8 4.1-.8h7.6v19.5h-2.1Zm-13.3 0 4.8-6.9h2.1l-4.7 6.9h-2.2Zm13.3-7v-11.3l.6.6h-6c-1.8 0-3.2.4-4.2 1.3s-1.5 2.1-1.5 3.8c0 1.6.5 2.8 1.4 3.7.9.9 2.3 1.3 4.1 1.3h6.2l-.6.6Z" fill="#000"/></svg>